<?xml version="1.0" standalone="no"?>
<!DOCTYPE svg PUBLIC "-//W3C//DTD SVG 20010904//EN"
 "http://www.w3.org/TR/2001/REC-SVG-20010904/DTD/svg10.dtd">
<svg version="1.0" xmlns="http://www.w3.org/2000/svg"
 width="300.000000pt" height="273.000000pt" viewBox="0 0 300.000000 273.000000"
 preserveAspectRatio="xMidYMid meet">
<metadata>
Created by potrace 1.10, written by Peter Selinger 2001-2011
</metadata>
<g transform="translate(0.000000,273.000000) scale(0.100000,-0.100000)"
fill="#000000" stroke="none">
<path d="M1438 2720 c-131 -21 -260 -73 -359 -146 -93 -68 -162 -183 -191
-317 -16 -76 -6 -81 191 -106 190 -24 201 -22 219 51 17 63 46 105 98 137 122
78 274 61 341 -37 23 -35 33 -90 36 -207 l2 -69 -137 -13 c-415 -38 -644 -147
-749 -355 -42 -83 -59 -159 -59 -265 0 -169 37 -271 132 -366 101 -102 237
-145 412 -132 171 13 275 57 390 165 l69 65 26 -34 c14 -19 57 -68 95 -108 98
-104 100 -103 268 42 73 63 137 124 142 135 8 17 1 32 -33 78 -23 31 -54 82
-69 112 l-27 55 -6 455 c-7 500 -10 526 -70 622 -66 102 -189 185 -334 223
-71 19 -305 28 -387 15z m339 -967 c4 -9 2 -77 -4 -150 -10 -114 -16 -142 -42
-199 -43 -91 -83 -138 -143 -168 -90 -45 -175 -31 -235 37 -43 49 -56 98 -52
193 9 197 146 296 417 303 41 1 54 -3 59 -16z"/>
<path d="M2636 660 c-54 -11 -107 -30 -134 -47 -46 -29 -71 -57 -60 -68 4 -4
47 -1 96 5 125 17 274 10 301 -14 37 -33 23 -119 -49 -304 -48 -123 -30 -145
50 -61 113 118 201 408 141 468 -21 21 -121 41 -202 40 -30 0 -94 -9 -143 -19z"/>
<path d="M3 603 c-8 -20 38 -64 186 -174 489 -365 1137 -508 1741 -384 254 53
535 165 722 288 79 52 92 66 82 92 -14 37 -40 36 -142 -5 -198 -78 -441 -142
-677 -177 -185 -27 -619 -25 -815 6 -353 54 -693 167 -978 325 -89 50 -109 55
-119 29z"/>
</g>
</svg>
