<?xml version="1.0" standalone="no"?>
<!DOCTYPE svg PUBLIC "-//W3C//DTD SVG 20010904//EN"
 "http://www.w3.org/TR/2001/REC-SVG-20010904/DTD/svg10.dtd">
<svg version="1.0" xmlns="http://www.w3.org/2000/svg"
 width="500.000000pt" height="500.000000pt" viewBox="0 0 500.000000 500.000000"
 preserveAspectRatio="xMidYMid meet">
<metadata>
Created by potrace 1.16, written by Peter Selinger 2001-2019
</metadata>
<g transform="translate(0.000000,500.000000) scale(0.100000,-0.100000)"
fill="#000000" stroke="none">
<path d="M2405 4813 c-11 -2 -55 -10 -97 -19 -268 -51 -512 -195 -644 -381
-91 -127 -180 -368 -159 -429 19 -53 43 -61 305 -93 135 -17 258 -31 273 -31
35 0 83 45 92 86 54 245 318 385 555 295 148 -56 200 -161 200 -407 l0 -131
-142 -12 c-609 -52 -932 -165 -1151 -400 -147 -159 -220 -366 -219 -621 2
-532 352 -842 896 -791 284 27 438 97 658 300 l66 61 38 -52 c78 -109 141
-182 202 -234 58 -49 68 -54 112 -54 48 0 48 0 265 186 120 104 221 197 226
212 15 40 2 77 -60 160 -77 105 -95 136 -123 212 -23 65 -23 65 -29 755 -6
735 -7 742 -58 889 -86 245 -337 423 -690 490 -61 12 -140 16 -290 15 -113 -1
-215 -3 -226 -6z m525 -1707 c0 -259 -25 -364 -122 -511 -62 -94 -125 -145
-215 -174 -125 -41 -234 -21 -314 59 -63 63 -90 137 -96 260 -8 159 34 276
132 369 104 99 246 148 465 160 74 4 138 9 143 9 4 1 7 -76 7 -172z"/>
</g>
</svg>
