<svg id="svg" version="1.1" xmlns="http://www.w3.org/2000/svg" xmlns:xlink="http://www.w3.org/1999/xlink" width="400" height="400" viewBox="0, 0, 400,400"><g id="svgg"><path id="path0" d="M351.600 276.800 C 351.600 277.022,350.533 277.200,349.200 277.200 C 347.867 277.200,346.800 277.378,346.800 277.600 C 346.800 277.820,345.900 278.000,344.800 278.000 C 343.700 278.000,342.800 278.180,342.800 278.400 C 342.800 278.620,342.080 278.800,341.200 278.800 C 340.320 278.800,339.600 278.980,339.600 279.200 C 339.600 279.420,339.060 279.600,338.400 279.600 C 337.740 279.600,337.200 279.780,337.200 280.000 C 337.200 280.220,336.660 280.400,336.000 280.400 C 335.340 280.400,334.800 280.580,334.800 280.800 C 334.800 281.020,334.440 281.200,334.000 281.200 C 333.560 281.200,333.200 281.380,333.200 281.600 C 333.200 281.820,332.660 282.000,332.000 282.000 C 331.340 282.000,330.800 282.180,330.800 282.400 C 330.800 282.620,330.440 282.800,330.000 282.800 C 329.560 282.800,329.200 282.980,329.200 283.200 C 329.200 283.420,328.880 283.600,328.488 283.600 C 328.097 283.600,327.517 283.960,327.200 284.400 C 326.883 284.840,326.303 285.200,325.912 285.200 C 325.520 285.200,325.200 285.380,325.200 285.600 C 325.200 285.820,324.880 286.000,324.488 286.000 C 324.097 286.000,323.517 286.360,323.200 286.800 C 322.883 287.240,322.385 287.600,322.094 287.600 C 321.363 287.600,319.600 289.426,319.600 290.182 C 319.600 290.522,319.420 290.800,319.200 290.800 C 318.354 290.800,318.783 293.620,319.782 294.618 C 320.815 295.652,326.000 296.137,326.000 295.200 C 326.000 294.967,327.333 294.800,329.200 294.800 C 331.067 294.800,332.400 294.633,332.400 294.400 C 332.400 294.160,334.000 294.000,336.400 294.000 C 338.800 294.000,340.400 293.840,340.400 293.600 C 340.400 293.343,344.533 293.200,352.000 293.200 C 359.467 293.200,363.600 293.343,363.600 293.600 C 363.600 293.820,364.500 294.000,365.600 294.000 C 366.700 294.000,367.600 294.180,367.600 294.400 C 367.600 294.620,367.960 294.800,368.400 294.800 C 368.840 294.800,369.200 294.980,369.200 295.200 C 369.200 295.420,369.478 295.600,369.818 295.600 C 371.819 295.600,372.400 297.261,372.400 302.982 C 372.400 306.327,372.247 308.400,372.000 308.400 C 371.780 308.400,371.600 309.120,371.600 310.000 C 371.600 310.880,371.420 311.600,371.200 311.600 C 370.980 311.600,370.800 312.320,370.800 313.200 C 370.800 314.080,370.620 314.800,370.400 314.800 C 370.180 314.800,370.000 315.340,370.000 316.000 C 370.000 316.660,369.820 317.200,369.600 317.200 C 369.380 317.200,369.200 317.740,369.200 318.400 C 369.200 319.060,369.020 319.600,368.800 319.600 C 368.580 319.600,368.400 320.320,368.400 321.200 C 368.400 322.080,368.220 322.800,368.000 322.800 C 367.780 322.800,367.600 323.340,367.600 324.000 C 367.600 324.660,367.420 325.200,367.200 325.200 C 366.980 325.200,366.800 325.560,366.800 326.000 C 366.800 326.440,366.620 326.800,366.400 326.800 C 366.180 326.800,366.000 327.340,366.000 328.000 C 366.000 328.660,365.820 329.200,365.600 329.200 C 365.380 329.200,365.200 329.740,365.200 330.400 C 365.200 331.060,365.020 331.600,364.800 331.600 C 364.580 331.600,364.400 331.960,364.400 332.400 C 364.400 332.840,364.220 333.200,364.000 333.200 C 363.780 333.200,363.600 333.740,363.600 334.400 C 363.600 335.060,363.420 335.600,363.200 335.600 C 362.980 335.600,362.800 336.140,362.800 336.800 C 362.800 337.460,362.620 338.000,362.400 338.000 C 362.180 338.000,362.000 338.360,362.000 338.800 C 362.000 339.240,361.820 339.600,361.600 339.600 C 361.380 339.600,361.200 340.140,361.200 340.800 C 361.200 341.460,361.020 342.000,360.800 342.000 C 360.580 342.000,360.400 342.360,360.400 342.800 C 360.400 343.240,360.220 343.600,360.000 343.600 C 359.780 343.600,359.600 344.423,359.600 345.429 C 359.600 347.316,360.246 348.400,361.371 348.400 C 361.717 348.400,362.000 348.580,362.000 348.800 C 362.000 349.020,362.540 349.200,363.200 349.200 C 363.860 349.200,364.400 349.020,364.400 348.800 C 364.400 348.580,364.852 348.400,365.404 348.400 C 366.435 348.400,375.600 339.739,375.600 338.765 C 375.600 338.521,376.140 337.817,376.800 337.200 C 377.460 336.583,378.000 335.831,378.000 335.528 C 378.000 335.225,378.360 334.717,378.800 334.400 C 379.240 334.083,379.600 333.503,379.600 333.112 C 379.600 332.720,379.780 332.400,380.000 332.400 C 380.220 332.400,380.400 332.080,380.400 331.688 C 380.400 331.297,380.760 330.717,381.200 330.400 C 381.640 330.083,382.000 329.503,382.000 329.112 C 382.000 328.720,382.180 328.400,382.400 328.400 C 382.620 328.400,382.800 328.040,382.800 327.600 C 382.800 327.160,382.980 326.800,383.200 326.800 C 383.420 326.800,383.600 326.440,383.600 326.000 C 383.600 325.560,383.780 325.200,384.000 325.200 C 384.220 325.200,384.400 324.840,384.400 324.400 C 384.400 323.960,384.580 323.600,384.800 323.600 C 385.020 323.600,385.200 323.060,385.200 322.400 C 385.200 321.740,385.380 321.200,385.600 321.200 C 385.820 321.200,386.000 320.840,386.000 320.400 C 386.000 319.960,386.180 319.600,386.400 319.600 C 386.620 319.600,386.800 319.060,386.800 318.400 C 386.800 317.740,386.980 317.200,387.200 317.200 C 387.420 317.200,387.600 316.840,387.600 316.400 C 387.600 315.960,387.780 315.600,388.000 315.600 C 388.220 315.600,388.400 315.060,388.400 314.400 C 388.400 313.740,388.580 313.200,388.800 313.200 C 389.020 313.200,389.200 312.480,389.200 311.600 C 389.200 310.720,389.380 310.000,389.600 310.000 C 389.820 310.000,390.000 309.460,390.000 308.800 C 390.000 308.140,390.180 307.600,390.400 307.600 C 390.620 307.600,390.800 306.880,390.800 306.000 C 390.800 305.120,390.980 304.400,391.200 304.400 C 391.422 304.400,391.600 303.333,391.600 302.000 C 391.600 300.667,391.778 299.600,392.000 299.600 C 392.254 299.600,392.400 296.533,392.400 291.200 C 392.400 285.867,392.254 282.800,392.000 282.800 C 391.780 282.800,391.600 282.517,391.600 282.171 C 391.600 281.363,390.637 280.400,389.829 280.400 C 389.483 280.400,389.200 280.220,389.200 280.000 C 389.200 279.780,388.840 279.600,388.400 279.600 C 387.960 279.600,387.600 279.420,387.600 279.200 C 387.600 278.980,387.060 278.800,386.400 278.800 C 385.740 278.800,385.200 278.620,385.200 278.400 C 385.200 278.180,384.480 278.000,383.600 278.000 C 382.720 278.000,382.000 277.820,382.000 277.600 C 382.000 277.378,380.933 277.200,379.600 277.200 C 378.267 277.200,377.200 277.022,377.200 276.800 C 377.200 276.542,372.667 276.400,364.400 276.400 C 356.133 276.400,351.600 276.542,351.600 276.800 M8.500 284.610 C 7.549 285.626,7.143 290.000,8.000 290.000 C 8.220 290.000,8.400 290.360,8.400 290.800 C 8.400 291.254,8.667 291.600,9.017 291.600 C 9.357 291.600,11.059 293.040,12.800 294.800 C 14.541 296.560,16.165 298.000,16.409 298.000 C 16.653 298.000,17.729 298.900,18.800 300.000 C 19.871 301.100,20.954 302.000,21.205 302.000 C 21.457 302.000,22.354 302.720,23.200 303.600 C 24.046 304.480,24.949 305.200,25.208 305.200 C 25.467 305.200,26.183 305.740,26.800 306.400 C 27.417 307.060,28.137 307.600,28.400 307.600 C 28.663 307.600,29.383 308.140,30.000 308.800 C 30.617 309.460,31.337 310.000,31.600 310.000 C 31.863 310.000,32.583 310.540,33.200 311.200 C 33.817 311.860,34.569 312.400,34.872 312.400 C 35.175 312.400,35.683 312.760,36.000 313.200 C 36.317 313.640,36.857 314.000,37.200 314.000 C 37.543 314.000,38.083 314.360,38.400 314.800 C 38.717 315.240,39.225 315.600,39.528 315.600 C 39.831 315.600,40.583 316.140,41.200 316.800 C 41.817 317.460,42.569 318.000,42.872 318.000 C 43.175 318.000,43.683 318.360,44.000 318.800 C 44.317 319.240,44.897 319.600,45.288 319.600 C 45.680 319.600,46.000 319.780,46.000 320.000 C 46.000 320.220,46.320 320.400,46.712 320.400 C 47.103 320.400,47.683 320.760,48.000 321.200 C 48.317 321.640,48.857 322.000,49.200 322.000 C 49.543 322.000,50.083 322.360,50.400 322.800 C 50.717 323.240,51.297 323.600,51.688 323.600 C 52.080 323.600,52.400 323.780,52.400 324.000 C 52.400 324.220,52.720 324.400,53.112 324.400 C 53.503 324.400,54.083 324.760,54.400 325.200 C 54.717 325.640,55.297 326.000,55.688 326.000 C 56.080 326.000,56.400 326.180,56.400 326.400 C 56.400 326.620,56.720 326.800,57.112 326.800 C 57.503 326.800,58.083 327.160,58.400 327.600 C 58.717 328.040,59.297 328.400,59.688 328.400 C 60.080 328.400,60.400 328.580,60.400 328.800 C 60.400 329.020,60.760 329.200,61.200 329.200 C 61.640 329.200,62.000 329.380,62.000 329.600 C 62.000 329.820,62.360 330.000,62.800 330.000 C 63.240 330.000,63.600 330.180,63.600 330.400 C 63.600 330.620,63.960 330.800,64.400 330.800 C 64.840 330.800,65.200 330.980,65.200 331.200 C 65.200 331.420,65.520 331.600,65.912 331.600 C 66.303 331.600,66.883 331.960,67.200 332.400 C 67.517 332.840,68.097 333.200,68.488 333.200 C 68.880 333.200,69.200 333.380,69.200 333.600 C 69.200 333.820,69.560 334.000,70.000 334.000 C 70.440 334.000,70.800 334.180,70.800 334.400 C 70.800 334.620,71.160 334.800,71.600 334.800 C 72.040 334.800,72.400 334.980,72.400 335.200 C 72.400 335.420,72.760 335.600,73.200 335.600 C 73.640 335.600,74.000 335.780,74.000 336.000 C 74.000 336.220,74.360 336.400,74.800 336.400 C 75.240 336.400,75.600 336.580,75.600 336.800 C 75.600 337.020,75.960 337.200,76.400 337.200 C 76.840 337.200,77.200 337.380,77.200 337.600 C 77.200 337.820,77.740 338.000,78.400 338.000 C 79.060 338.000,79.600 338.180,79.600 338.400 C 79.600 338.620,79.960 338.800,80.400 338.800 C 80.840 338.800,81.200 338.980,81.200 339.200 C 81.200 339.420,81.560 339.600,82.000 339.600 C 82.440 339.600,82.800 339.780,82.800 340.000 C 82.800 340.220,83.160 340.400,83.600 340.400 C 84.040 340.400,84.400 340.580,84.400 340.800 C 84.400 341.020,84.760 341.200,85.200 341.200 C 85.640 341.200,86.000 341.380,86.000 341.600 C 86.000 341.820,86.540 342.000,87.200 342.000 C 87.860 342.000,88.400 342.180,88.400 342.400 C 88.400 342.620,88.760 342.800,89.200 342.800 C 89.640 342.800,90.000 342.980,90.000 343.200 C 90.000 343.420,90.540 343.600,91.200 343.600 C 91.860 343.600,92.400 343.780,92.400 344.000 C 92.400 344.220,92.760 344.400,93.200 344.400 C 93.640 344.400,94.000 344.580,94.000 344.800 C 94.000 345.020,94.540 345.200,95.200 345.200 C 95.860 345.200,96.400 345.380,96.400 345.600 C 96.400 345.820,96.760 346.000,97.200 346.000 C 97.640 346.000,98.000 346.180,98.000 346.400 C 98.000 346.620,98.540 346.800,99.200 346.800 C 99.860 346.800,100.400 346.980,100.400 347.200 C 100.400 347.420,100.940 347.600,101.600 347.600 C 102.260 347.600,102.800 347.780,102.800 348.000 C 102.800 348.220,103.340 348.400,104.000 348.400 C 104.660 348.400,105.200 348.580,105.200 348.800 C 105.200 349.020,105.560 349.200,106.000 349.200 C 106.440 349.200,106.800 349.380,106.800 349.600 C 106.800 349.820,107.520 350.000,108.400 350.000 C 109.280 350.000,110.000 350.180,110.000 350.400 C 110.000 350.620,110.360 350.800,110.800 350.800 C 111.240 350.800,111.600 350.980,111.600 351.200 C 111.600 351.420,112.320 351.600,113.200 351.600 C 114.080 351.600,114.800 351.780,114.800 352.000 C 114.800 352.220,115.340 352.400,116.000 352.400 C 116.660 352.400,117.200 352.580,117.200 352.800 C 117.200 353.020,117.740 353.200,118.400 353.200 C 119.060 353.200,119.600 353.380,119.600 353.600 C 119.600 353.820,120.320 354.000,121.200 354.000 C 122.080 354.000,122.800 354.180,122.800 354.400 C 122.800 354.620,123.520 354.800,124.400 354.800 C 125.280 354.800,126.000 354.980,126.000 355.200 C 126.000 355.420,126.540 355.600,127.200 355.600 C 127.860 355.600,128.400 355.780,128.400 356.000 C 128.400 356.220,129.120 356.400,130.000 356.400 C 130.880 356.400,131.600 356.580,131.600 356.800 C 131.600 357.020,132.500 357.200,133.600 357.200 C 134.700 357.200,135.600 357.380,135.600 357.600 C 135.600 357.820,136.320 358.000,137.200 358.000 C 138.080 358.000,138.800 358.180,138.800 358.400 C 138.800 358.620,139.700 358.800,140.800 358.800 C 141.900 358.800,142.800 358.980,142.800 359.200 C 142.800 359.422,143.867 359.600,145.200 359.600 C 146.533 359.600,147.600 359.778,147.600 360.000 C 147.600 360.220,148.500 360.400,149.600 360.400 C 150.700 360.400,151.600 360.580,151.600 360.800 C 151.600 361.022,152.667 361.200,154.000 361.200 C 155.333 361.200,156.400 361.378,156.400 361.600 C 156.400 361.833,157.733 362.000,159.600 362.000 C 161.467 362.000,162.800 362.167,162.800 362.400 C 162.800 362.633,164.133 362.800,166.000 362.800 C 167.867 362.800,169.200 362.967,169.200 363.200 C 169.200 363.463,179.333 363.600,198.800 363.600 C 218.267 363.600,228.400 363.463,228.400 363.200 C 228.400 362.967,229.733 362.800,231.600 362.800 C 233.467 362.800,234.800 362.633,234.800 362.400 C 234.800 362.167,236.133 362.000,238.000 362.000 C 239.867 362.000,241.200 361.833,241.200 361.600 C 241.200 361.378,242.267 361.200,243.600 361.200 C 244.933 361.200,246.000 361.022,246.000 360.800 C 246.000 360.580,246.900 360.400,248.000 360.400 C 249.100 360.400,250.000 360.220,250.000 360.000 C 250.000 359.778,251.067 359.600,252.400 359.600 C 253.733 359.600,254.800 359.422,254.800 359.200 C 254.800 358.980,255.700 358.800,256.800 358.800 C 257.900 358.800,258.800 358.620,258.800 358.400 C 258.800 358.180,259.520 358.000,260.400 358.000 C 261.280 358.000,262.000 357.820,262.000 357.600 C 262.000 357.380,262.720 357.200,263.600 357.200 C 264.480 357.200,265.200 357.020,265.200 356.800 C 265.200 356.580,266.100 356.400,267.200 356.400 C 268.300 356.400,269.200 356.220,269.200 356.000 C 269.200 355.780,269.740 355.600,270.400 355.600 C 271.060 355.600,271.600 355.420,271.600 355.200 C 271.600 354.980,272.320 354.800,273.200 354.800 C 274.080 354.800,274.800 354.620,274.800 354.400 C 274.800 354.180,275.520 354.000,276.400 354.000 C 277.280 354.000,278.000 353.820,278.000 353.600 C 278.000 353.380,278.540 353.200,279.200 353.200 C 279.860 353.200,280.400 353.020,280.400 352.800 C 280.400 352.580,281.120 352.400,282.000 352.400 C 282.880 352.400,283.600 352.220,283.600 352.000 C 283.600 351.780,284.140 351.600,284.800 351.600 C 285.460 351.600,286.000 351.420,286.000 351.200 C 286.000 350.980,286.540 350.800,287.200 350.800 C 287.860 350.800,288.400 350.620,288.400 350.400 C 288.400 350.180,288.940 350.000,289.600 350.000 C 290.260 350.000,290.800 349.820,290.800 349.600 C 290.800 349.380,291.340 349.200,292.000 349.200 C 292.660 349.200,293.200 349.020,293.200 348.800 C 293.200 348.580,293.560 348.400,294.000 348.400 C 294.440 348.400,294.800 348.220,294.800 348.000 C 294.800 347.780,295.340 347.600,296.000 347.600 C 296.660 347.600,297.200 347.420,297.200 347.200 C 297.200 346.980,297.740 346.800,298.400 346.800 C 299.060 346.800,299.600 346.620,299.600 346.400 C 299.600 346.180,300.140 346.000,300.800 346.000 C 301.460 346.000,302.000 345.820,302.000 345.600 C 302.000 345.380,302.360 345.200,302.800 345.200 C 303.240 345.200,303.600 345.020,303.600 344.800 C 303.600 344.580,304.140 344.400,304.800 344.400 C 305.460 344.400,306.000 344.220,306.000 344.000 C 306.000 343.780,306.360 343.600,306.800 343.600 C 307.240 343.600,307.600 343.420,307.600 343.200 C 307.600 342.980,308.140 342.800,308.800 342.800 C 309.460 342.800,310.000 342.620,310.000 342.400 C 310.000 342.180,310.360 342.000,310.800 342.000 C 311.240 342.000,311.600 341.820,311.600 341.600 C 311.600 341.380,311.960 341.200,312.400 341.200 C 312.840 341.200,313.200 341.020,313.200 340.800 C 313.200 340.580,313.740 340.400,314.400 340.400 C 315.060 340.400,315.600 340.220,315.600 340.000 C 315.600 339.780,315.960 339.600,316.400 339.600 C 316.840 339.600,317.200 339.420,317.200 339.200 C 317.200 338.980,317.560 338.800,318.000 338.800 C 318.440 338.800,318.800 338.620,318.800 338.400 C 318.800 338.180,319.160 338.000,319.600 338.000 C 320.040 338.000,320.400 337.820,320.400 337.600 C 320.400 337.380,320.760 337.200,321.200 337.200 C 321.640 337.200,322.000 337.020,322.000 336.800 C 322.000 336.580,322.360 336.400,322.800 336.400 C 323.240 336.400,323.600 336.220,323.600 336.000 C 323.600 335.780,323.960 335.600,324.400 335.600 C 324.840 335.600,325.200 335.420,325.200 335.200 C 325.200 334.980,325.560 334.800,326.000 334.800 C 326.440 334.800,326.800 334.620,326.800 334.400 C 326.800 334.180,327.160 334.000,327.600 334.000 C 328.040 334.000,328.400 333.820,328.400 333.600 C 328.400 333.380,328.760 333.200,329.200 333.200 C 329.640 333.200,330.000 333.020,330.000 332.800 C 330.000 332.580,330.360 332.400,330.800 332.400 C 331.240 332.400,331.600 332.220,331.600 332.000 C 331.600 331.780,331.960 331.600,332.400 331.600 C 332.840 331.600,333.200 331.420,333.200 331.200 C 333.200 330.980,333.520 330.800,333.912 330.800 C 334.303 330.800,334.883 330.440,335.200 330.000 C 335.517 329.560,336.097 329.200,336.488 329.200 C 336.880 329.200,337.200 329.020,337.200 328.800 C 337.200 328.580,337.520 328.400,337.912 328.400 C 338.303 328.400,338.883 328.040,339.200 327.600 C 339.517 327.160,340.097 326.800,340.488 326.800 C 340.880 326.800,341.200 326.620,341.200 326.400 C 341.200 326.180,341.520 326.000,341.912 326.000 C 342.303 326.000,342.883 325.640,343.200 325.200 C 343.517 324.760,344.097 324.400,344.488 324.400 C 344.880 324.400,345.200 324.220,345.200 324.000 C 345.200 323.780,345.520 323.600,345.912 323.600 C 346.303 323.600,346.883 323.240,347.200 322.800 C 347.517 322.360,348.057 322.000,348.400 322.000 C 348.743 322.000,349.283 321.640,349.600 321.200 C 349.917 320.760,350.425 320.400,350.728 320.400 C 351.031 320.400,351.783 319.860,352.400 319.200 C 353.017 318.540,353.723 318.000,353.969 318.000 C 354.216 318.000,355.403 317.014,356.609 315.809 L 358.800 313.617 358.800 311.009 C 358.800 309.536,358.626 308.400,358.400 308.400 C 358.180 308.400,358.000 308.122,358.000 307.782 C 358.000 306.982,356.218 305.200,355.418 305.200 C 355.078 305.200,354.800 305.020,354.800 304.800 C 354.800 304.571,353.600 304.400,352.000 304.400 C 350.400 304.400,349.200 304.571,349.200 304.800 C 349.200 305.020,348.660 305.200,348.000 305.200 C 347.340 305.200,346.800 305.380,346.800 305.600 C 346.800 305.820,346.440 306.000,346.000 306.000 C 345.560 306.000,345.200 306.180,345.200 306.400 C 345.200 306.620,344.840 306.800,344.400 306.800 C 343.960 306.800,343.600 306.980,343.600 307.200 C 343.600 307.420,343.060 307.600,342.400 307.600 C 341.740 307.600,341.200 307.780,341.200 308.000 C 341.200 308.220,340.840 308.400,340.400 308.400 C 339.960 308.400,339.600 308.580,339.600 308.800 C 339.600 309.020,339.060 309.200,338.400 309.200 C 337.740 309.200,337.200 309.380,337.200 309.600 C 337.200 309.820,336.660 310.000,336.000 310.000 C 335.340 310.000,334.800 310.180,334.800 310.400 C 334.800 310.620,334.440 310.800,334.000 310.800 C 333.560 310.800,333.200 310.980,333.200 311.200 C 333.200 311.420,332.660 311.600,332.000 311.600 C 331.340 311.600,330.800 311.780,330.800 312.000 C 330.800 312.220,330.260 312.400,329.600 312.400 C 328.940 312.400,328.400 312.580,328.400 312.800 C 328.400 313.020,328.040 313.200,327.600 313.200 C 327.160 313.200,326.800 313.380,326.800 313.600 C 326.800 313.820,326.260 314.000,325.600 314.000 C 324.940 314.000,324.400 314.180,324.400 314.400 C 324.400 314.620,323.860 314.800,323.200 314.800 C 322.540 314.800,322.000 314.980,322.000 315.200 C 322.000 315.420,321.460 315.600,320.800 315.600 C 320.140 315.600,319.600 315.780,319.600 316.000 C 319.600 316.220,319.060 316.400,318.400 316.400 C 317.740 316.400,317.200 316.580,317.200 316.800 C 317.200 317.020,316.480 317.200,315.600 317.200 C 314.720 317.200,314.000 317.380,314.000 317.600 C 314.000 317.820,313.460 318.000,312.800 318.000 C 312.140 318.000,311.600 318.180,311.600 318.400 C 311.600 318.620,311.060 318.800,310.400 318.800 C 309.740 318.800,309.200 318.980,309.200 319.200 C 309.200 319.420,308.480 319.600,307.600 319.600 C 306.720 319.600,306.000 319.780,306.000 320.000 C 306.000 320.220,305.460 320.400,304.800 320.400 C 304.140 320.400,303.600 320.580,303.600 320.800 C 303.600 321.020,302.880 321.200,302.000 321.200 C 301.120 321.200,300.400 321.380,300.400 321.600 C 300.400 321.820,299.860 322.000,299.200 322.000 C 298.540 322.000,298.000 322.180,298.000 322.400 C 298.000 322.620,297.280 322.800,296.400 322.800 C 295.520 322.800,294.800 322.980,294.800 323.200 C 294.800 323.420,294.080 323.600,293.200 323.600 C 292.320 323.600,291.600 323.780,291.600 324.000 C 291.600 324.220,290.880 324.400,290.000 324.400 C 289.120 324.400,288.400 324.580,288.400 324.800 C 288.400 325.020,287.500 325.200,286.400 325.200 C 285.300 325.200,284.400 325.380,284.400 325.600 C 284.400 325.820,283.680 326.000,282.800 326.000 C 281.920 326.000,281.200 326.180,281.200 326.400 C 281.200 326.620,280.300 326.800,279.200 326.800 C 278.100 326.800,277.200 326.980,277.200 327.200 C 277.200 327.420,276.300 327.600,275.200 327.600 C 274.100 327.600,273.200 327.780,273.200 328.000 C 273.200 328.222,272.133 328.400,270.800 328.400 C 269.467 328.400,268.400 328.578,268.400 328.800 C 268.400 329.020,267.500 329.200,266.400 329.200 C 265.300 329.200,264.400 329.380,264.400 329.600 C 264.400 329.822,263.333 330.000,262.000 330.000 C 260.667 330.000,259.600 330.178,259.600 330.400 C 259.600 330.629,258.400 330.800,256.800 330.800 C 255.200 330.800,254.000 330.971,254.000 331.200 C 254.000 331.433,252.667 331.600,250.800 331.600 C 248.933 331.600,247.600 331.767,247.600 332.000 C 247.600 332.233,246.267 332.400,244.400 332.400 C 242.533 332.400,241.200 332.567,241.200 332.800 C 241.200 333.044,239.333 333.200,236.400 333.200 C 233.467 333.200,231.600 333.356,231.600 333.600 C 231.600 333.850,229.200 334.000,225.200 334.000 C 221.200 334.000,218.800 334.150,218.800 334.400 C 218.800 334.660,213.467 334.800,203.600 334.800 C 193.733 334.800,188.400 334.660,188.400 334.400 C 188.400 334.150,186.000 334.000,182.000 334.000 C 178.000 334.000,175.600 333.850,175.600 333.600 C 175.600 333.356,173.733 333.200,170.800 333.200 C 167.867 333.200,166.000 333.044,166.000 332.800 C 166.000 332.563,164.533 332.400,162.400 332.400 C 160.267 332.400,158.800 332.237,158.800 332.000 C 158.800 331.771,157.600 331.600,156.000 331.600 C 154.400 331.600,153.200 331.429,153.200 331.200 C 153.200 330.967,151.867 330.800,150.000 330.800 C 148.133 330.800,146.800 330.633,146.800 330.400 C 146.800 330.178,145.733 330.000,144.400 330.000 C 143.067 330.000,142.000 329.822,142.000 329.600 C 142.000 329.380,141.100 329.200,140.000 329.200 C 138.900 329.200,138.000 329.020,138.000 328.800 C 138.000 328.578,136.933 328.400,135.600 328.400 C 134.267 328.400,133.200 328.222,133.200 328.000 C 133.200 327.780,132.300 327.600,131.200 327.600 C 130.100 327.600,129.200 327.420,129.200 327.200 C 129.200 326.980,128.300 326.800,127.200 326.800 C 126.100 326.800,125.200 326.620,125.200 326.400 C 125.200 326.180,124.300 326.000,123.200 326.000 C 122.100 326.000,121.200 325.820,121.200 325.600 C 121.200 325.380,120.480 325.200,119.600 325.200 C 118.720 325.200,118.000 325.020,118.000 324.800 C 118.000 324.580,117.280 324.400,116.400 324.400 C 115.520 324.400,114.800 324.220,114.800 324.000 C 114.800 323.780,114.080 323.600,113.200 323.600 C 112.320 323.600,111.600 323.420,111.600 323.200 C 111.600 322.980,110.880 322.800,110.000 322.800 C 109.120 322.800,108.400 322.620,108.400 322.400 C 108.400 322.180,107.680 322.000,106.800 322.000 C 105.920 322.000,105.200 321.820,105.200 321.600 C 105.200 321.380,104.480 321.200,103.600 321.200 C 102.720 321.200,102.000 321.020,102.000 320.800 C 102.000 320.580,101.460 320.400,100.800 320.400 C 100.140 320.400,99.600 320.220,99.600 320.000 C 99.600 319.780,98.880 319.600,98.000 319.600 C 97.120 319.600,96.400 319.420,96.400 319.200 C 96.400 318.980,95.860 318.800,95.200 318.800 C 94.540 318.800,94.000 318.620,94.000 318.400 C 94.000 318.180,93.460 318.000,92.800 318.000 C 92.140 318.000,91.600 317.820,91.600 317.600 C 91.600 317.380,91.060 317.200,90.400 317.200 C 89.740 317.200,89.200 317.020,89.200 316.800 C 89.200 316.580,88.480 316.400,87.600 316.400 C 86.720 316.400,86.000 316.220,86.000 316.000 C 86.000 315.780,85.640 315.600,85.200 315.600 C 84.760 315.600,84.400 315.420,84.400 315.200 C 84.400 314.980,83.680 314.800,82.800 314.800 C 81.920 314.800,81.200 314.620,81.200 314.400 C 81.200 314.180,80.840 314.000,80.400 314.000 C 79.960 314.000,79.600 313.820,79.600 313.600 C 79.600 313.380,79.060 313.200,78.400 313.200 C 77.740 313.200,77.200 313.020,77.200 312.800 C 77.200 312.580,76.660 312.400,76.000 312.400 C 75.340 312.400,74.800 312.220,74.800 312.000 C 74.800 311.780,74.260 311.600,73.600 311.600 C 72.940 311.600,72.400 311.420,72.400 311.200 C 72.400 310.980,72.040 310.800,71.600 310.800 C 71.160 310.800,70.800 310.620,70.800 310.400 C 70.800 310.180,70.260 310.000,69.600 310.000 C 68.940 310.000,68.400 309.820,68.400 309.600 C 68.400 309.380,67.860 309.200,67.200 309.200 C 66.540 309.200,66.000 309.020,66.000 308.800 C 66.000 308.580,65.640 308.400,65.200 308.400 C 64.760 308.400,64.400 308.220,64.400 308.000 C 64.400 307.780,63.860 307.600,63.200 307.600 C 62.540 307.600,62.000 307.420,62.000 307.200 C 62.000 306.980,61.640 306.800,61.200 306.800 C 60.760 306.800,60.400 306.620,60.400 306.400 C 60.400 306.180,59.860 306.000,59.200 306.000 C 58.540 306.000,58.000 305.820,58.000 305.600 C 58.000 305.380,57.640 305.200,57.200 305.200 C 56.760 305.200,56.400 305.020,56.400 304.800 C 56.400 304.580,55.860 304.400,55.200 304.400 C 54.540 304.400,54.000 304.220,54.000 304.000 C 54.000 303.780,53.640 303.600,53.200 303.600 C 52.760 303.600,52.400 303.420,52.400 303.200 C 52.400 302.980,52.040 302.800,51.600 302.800 C 51.160 302.800,50.800 302.620,50.800 302.400 C 50.800 302.180,50.440 302.000,50.000 302.000 C 49.560 302.000,49.200 301.820,49.200 301.600 C 49.200 301.380,48.660 301.200,48.000 301.200 C 47.340 301.200,46.800 301.020,46.800 300.800 C 46.800 300.580,46.440 300.400,46.000 300.400 C 45.560 300.400,45.200 300.220,45.200 300.000 C 45.200 299.780,44.840 299.600,44.400 299.600 C 43.960 299.600,43.600 299.420,43.600 299.200 C 43.600 298.980,43.240 298.800,42.800 298.800 C 42.360 298.800,42.000 298.620,42.000 298.400 C 42.000 298.180,41.640 298.000,41.200 298.000 C 40.760 298.000,40.400 297.820,40.400 297.600 C 40.400 297.380,40.040 297.200,39.600 297.200 C 39.160 297.200,38.800 297.020,38.800 296.800 C 38.800 296.580,38.440 296.400,38.000 296.400 C 37.560 296.400,37.200 296.220,37.200 296.000 C 37.200 295.780,36.840 295.600,36.400 295.600 C 35.960 295.600,35.600 295.420,35.600 295.200 C 35.600 294.980,35.240 294.800,34.800 294.800 C 34.360 294.800,34.000 294.620,34.000 294.400 C 34.000 294.180,33.640 294.000,33.200 294.000 C 32.760 294.000,32.400 293.820,32.400 293.600 C 32.400 293.380,32.040 293.200,31.600 293.200 C 31.160 293.200,30.800 293.020,30.800 292.800 C 30.800 292.580,30.440 292.400,30.000 292.400 C 29.560 292.400,29.200 292.220,29.200 292.000 C 29.200 291.780,28.840 291.600,28.400 291.600 C 27.960 291.600,27.600 291.420,27.600 291.200 C 27.600 290.980,27.240 290.800,26.800 290.800 C 26.360 290.800,26.000 290.620,26.000 290.400 C 26.000 290.180,25.640 290.000,25.200 290.000 C 24.760 290.000,24.400 289.820,24.400 289.600 C 24.400 289.380,24.040 289.200,23.600 289.200 C 23.160 289.200,22.800 289.020,22.800 288.800 C 22.800 288.580,22.480 288.400,22.088 288.400 C 21.697 288.400,21.117 288.040,20.800 287.600 C 20.483 287.160,19.903 286.800,19.512 286.800 C 19.120 286.800,18.800 286.620,18.800 286.400 C 18.800 286.180,18.440 286.000,18.000 286.000 C 17.560 286.000,17.200 285.820,17.200 285.600 C 17.200 285.380,16.880 285.200,16.488 285.200 C 16.097 285.200,15.517 284.840,15.200 284.400 C 14.292 283.140,9.743 283.283,8.500 284.610 " stroke="none" fill="#fcac4c" fill-rule="evenodd"></path><path id="path1" d="M193.200 14.400 C 193.200 14.622,192.133 14.800,190.800 14.800 C 189.467 14.800,188.400 14.978,188.400 15.200 C 188.400 15.420,187.421 15.600,186.224 15.600 C 185.027 15.600,183.936 15.780,183.800 16.000 C 183.664 16.220,182.843 16.400,181.976 16.400 C 181.109 16.400,180.400 16.580,180.400 16.800 C 180.400 17.020,179.680 17.200,178.800 17.200 C 177.920 17.200,177.200 17.380,177.200 17.600 C 177.200 17.820,176.660 18.000,176.000 18.000 C 175.340 18.000,174.800 18.180,174.800 18.400 C 174.800 18.620,174.271 18.800,173.624 18.800 C 172.977 18.800,172.336 18.980,172.200 19.200 C 172.064 19.420,171.513 19.600,170.976 19.600 C 170.439 19.600,170.000 19.780,170.000 20.000 C 170.000 20.220,169.460 20.400,168.800 20.400 C 168.140 20.400,167.600 20.580,167.600 20.800 C 167.600 21.020,167.060 21.200,166.400 21.200 C 165.740 21.200,165.200 21.380,165.200 21.600 C 165.200 21.820,164.840 22.000,164.400 22.000 C 163.960 22.000,163.600 22.180,163.600 22.400 C 163.600 22.620,163.240 22.800,162.800 22.800 C 162.360 22.800,162.000 22.980,162.000 23.200 C 162.000 23.420,161.640 23.600,161.200 23.600 C 160.760 23.600,160.400 23.780,160.400 24.000 C 160.400 24.220,160.040 24.400,159.600 24.400 C 159.160 24.400,158.800 24.580,158.800 24.800 C 158.800 25.020,158.440 25.200,158.000 25.200 C 157.560 25.200,157.200 25.380,157.200 25.600 C 157.200 25.820,156.840 26.000,156.400 26.000 C 155.960 26.000,155.600 26.180,155.600 26.400 C 155.600 26.620,155.280 26.800,154.888 26.800 C 154.497 26.800,153.917 27.160,153.600 27.600 C 153.283 28.040,152.743 28.400,152.400 28.400 C 152.057 28.400,151.517 28.760,151.200 29.200 C 150.883 29.640,150.343 30.000,150.000 30.000 C 149.657 30.000,149.117 30.360,148.800 30.800 C 148.483 31.240,147.993 31.600,147.712 31.600 C 147.431 31.600,146.459 32.320,145.552 33.200 C 144.645 34.080,143.736 34.800,143.531 34.800 C 143.047 34.800,134.800 43.144,134.800 43.634 C 134.800 43.839,134.260 44.572,133.600 45.263 C 132.940 45.954,132.400 46.722,132.400 46.971 C 132.400 47.220,132.040 47.683,131.600 48.000 C 131.160 48.317,130.800 48.857,130.800 49.200 C 130.800 49.543,130.440 50.083,130.000 50.400 C 129.560 50.717,129.200 51.297,129.200 51.688 C 129.200 52.080,129.020 52.400,128.800 52.400 C 128.580 52.400,128.400 52.760,128.400 53.200 C 128.400 53.640,128.220 54.000,128.000 54.000 C 127.780 54.000,127.600 54.360,127.600 54.800 C 127.600 55.240,127.420 55.600,127.200 55.600 C 126.980 55.600,126.800 55.960,126.800 56.400 C 126.800 56.840,126.620 57.200,126.400 57.200 C 126.180 57.200,126.000 57.560,126.000 58.000 C 126.000 58.440,125.820 58.800,125.600 58.800 C 125.380 58.800,125.200 59.160,125.200 59.600 C 125.200 60.040,125.020 60.400,124.800 60.400 C 124.580 60.400,124.400 60.940,124.400 61.600 C 124.400 62.260,124.220 62.800,124.000 62.800 C 123.780 62.800,123.600 63.160,123.600 63.600 C 123.600 64.040,123.420 64.400,123.200 64.400 C 122.980 64.400,122.800 64.940,122.800 65.600 C 122.800 66.260,122.620 66.800,122.400 66.800 C 122.180 66.800,122.000 67.520,122.000 68.400 C 122.000 69.280,121.820 70.000,121.600 70.000 C 121.380 70.000,121.200 70.529,121.200 71.176 C 121.200 71.823,121.020 72.464,120.800 72.600 C 120.580 72.736,120.400 73.546,120.400 74.400 C 120.400 75.254,120.220 76.064,120.000 76.200 C 119.780 76.336,119.600 77.697,119.600 79.224 C 119.600 80.808,119.772 82.000,120.000 82.000 C 120.220 82.000,120.400 82.291,120.400 82.646 C 120.400 83.481,123.145 86.000,124.055 86.000 C 124.439 86.000,124.864 86.180,125.000 86.400 C 125.136 86.620,126.137 86.800,127.224 86.800 C 128.311 86.800,129.200 86.980,129.200 87.200 C 129.200 87.433,130.533 87.600,132.400 87.600 C 134.267 87.600,135.600 87.767,135.600 88.000 C 135.600 88.233,136.925 88.400,138.776 88.400 C 140.523 88.400,142.064 88.580,142.200 88.800 C 142.336 89.020,143.787 89.200,145.424 89.200 C 147.141 89.200,148.400 89.369,148.400 89.600 C 148.400 89.833,149.733 90.000,151.600 90.000 C 153.467 90.000,154.800 90.167,154.800 90.400 C 154.800 90.631,156.059 90.800,157.776 90.800 C 159.413 90.800,160.864 90.980,161.000 91.200 C 161.328 91.731,169.200 91.731,169.200 91.200 C 169.200 90.980,169.491 90.800,169.846 90.800 C 170.593 90.800,173.200 88.097,173.200 87.322 C 173.200 87.035,173.380 86.800,173.600 86.800 C 173.820 86.800,174.000 86.361,174.000 85.824 C 174.000 85.287,174.180 84.736,174.400 84.600 C 174.620 84.464,174.800 83.643,174.800 82.776 C 174.800 81.909,174.980 81.200,175.200 81.200 C 175.420 81.200,175.600 80.851,175.600 80.424 C 175.600 79.997,175.780 79.536,176.000 79.400 C 176.220 79.264,176.400 78.713,176.400 78.176 C 176.400 77.639,176.580 77.200,176.800 77.200 C 177.020 77.200,177.200 76.840,177.200 76.400 C 177.200 75.960,177.380 75.600,177.600 75.600 C 177.820 75.600,178.000 75.240,178.000 74.800 C 178.000 74.360,178.150 74.000,178.332 74.000 C 178.515 74.000,178.920 73.509,179.232 72.908 C 179.969 71.491,186.232 65.200,186.906 65.200 C 187.191 65.200,187.683 64.840,188.000 64.400 C 188.317 63.960,188.897 63.600,189.288 63.600 C 189.680 63.600,190.000 63.420,190.000 63.200 C 190.000 62.980,190.360 62.800,190.800 62.800 C 191.240 62.800,191.600 62.620,191.600 62.400 C 191.600 62.180,192.039 62.000,192.576 62.000 C 193.113 62.000,193.664 61.820,193.800 61.600 C 193.936 61.380,194.397 61.200,194.824 61.200 C 195.251 61.200,195.600 61.020,195.600 60.800 C 195.600 60.580,196.320 60.400,197.200 60.400 C 198.080 60.400,198.800 60.220,198.800 60.000 C 198.800 59.780,199.700 59.600,200.800 59.600 C 201.900 59.600,202.800 59.420,202.800 59.200 C 202.800 58.960,204.400 58.800,206.800 58.800 C 209.200 58.800,210.800 58.960,210.800 59.200 C 210.800 59.420,211.700 59.600,212.800 59.600 C 213.900 59.600,214.800 59.780,214.800 60.000 C 214.800 60.220,215.329 60.400,215.976 60.400 C 216.623 60.400,217.264 60.580,217.400 60.800 C 217.536 61.020,218.087 61.200,218.624 61.200 C 219.161 61.200,219.600 61.380,219.600 61.600 C 219.600 61.820,219.960 62.000,220.400 62.000 C 220.840 62.000,221.200 62.180,221.200 62.400 C 221.200 62.620,221.520 62.800,221.912 62.800 C 222.303 62.800,222.883 63.160,223.200 63.600 C 223.517 64.040,224.022 64.400,224.323 64.400 C 225.022 64.400,229.200 68.729,229.200 69.454 C 229.200 69.754,229.380 70.000,229.600 70.000 C 229.820 70.000,230.000 70.360,230.000 70.800 C 230.000 71.240,230.180 71.600,230.400 71.600 C 230.620 71.600,230.800 71.960,230.800 72.400 C 230.800 72.840,230.980 73.200,231.200 73.200 C 231.420 73.200,231.600 73.560,231.600 74.000 C 231.600 74.440,231.780 74.800,232.000 74.800 C 232.220 74.800,232.400 75.520,232.400 76.400 C 232.400 77.280,232.580 78.000,232.800 78.000 C 233.020 78.000,233.200 78.900,233.200 80.000 C 233.200 81.100,233.380 82.000,233.600 82.000 C 233.857 82.000,234.000 85.867,234.000 92.800 L 234.000 103.600 230.624 103.600 C 228.767 103.600,227.136 103.780,227.000 104.000 C 226.860 104.227,224.863 104.400,222.376 104.400 C 219.725 104.400,218.000 104.558,218.000 104.800 C 218.000 105.041,216.341 105.200,213.824 105.200 C 211.471 105.200,209.539 105.375,209.400 105.600 C 209.264 105.820,207.824 106.000,206.200 106.000 C 204.576 106.000,203.136 106.180,203.000 106.400 C 202.864 106.620,201.683 106.800,200.376 106.800 C 199.059 106.800,198.000 106.978,198.000 107.200 C 198.000 107.429,196.800 107.600,195.200 107.600 C 193.600 107.600,192.400 107.771,192.400 108.000 C 192.400 108.222,191.333 108.400,190.000 108.400 C 188.667 108.400,187.600 108.578,187.600 108.800 C 187.600 109.020,186.700 109.200,185.600 109.200 C 184.500 109.200,183.600 109.380,183.600 109.600 C 183.600 109.820,182.801 110.000,181.824 110.000 C 180.847 110.000,179.936 110.180,179.800 110.400 C 179.664 110.620,178.843 110.800,177.976 110.800 C 177.109 110.800,176.400 110.980,176.400 111.200 C 176.400 111.420,175.680 111.600,174.800 111.600 C 173.920 111.600,173.200 111.780,173.200 112.000 C 173.200 112.220,172.671 112.400,172.024 112.400 C 171.377 112.400,170.736 112.580,170.600 112.800 C 170.464 113.020,169.911 113.200,169.371 113.200 C 168.831 113.200,168.032 113.380,167.595 113.600 C 167.158 113.820,166.442 114.180,166.005 114.400 C 165.568 114.620,164.848 114.800,164.405 114.800 C 163.962 114.800,163.600 114.980,163.600 115.200 C 163.600 115.420,163.060 115.600,162.400 115.600 C 161.740 115.600,161.200 115.780,161.200 116.000 C 161.200 116.220,160.840 116.400,160.400 116.400 C 159.960 116.400,159.600 116.580,159.600 116.800 C 159.600 117.020,159.240 117.200,158.800 117.200 C 158.360 117.200,158.000 117.380,158.000 117.600 C 158.000 117.820,157.561 118.000,157.024 118.000 C 156.487 118.000,155.936 118.180,155.800 118.400 C 155.664 118.620,155.203 118.800,154.776 118.800 C 154.349 118.800,154.000 118.980,154.000 119.200 C 154.000 119.420,153.640 119.600,153.200 119.600 C 152.760 119.600,152.400 119.780,152.400 120.000 C 152.400 120.220,152.040 120.400,151.600 120.400 C 151.160 120.400,150.800 120.580,150.800 120.800 C 150.800 121.020,150.440 121.200,150.000 121.200 C 149.560 121.200,149.200 121.380,149.200 121.600 C 149.200 121.820,148.880 122.000,148.488 122.000 C 148.097 122.000,147.517 122.360,147.200 122.800 C 146.883 123.240,146.303 123.600,145.912 123.600 C 145.520 123.600,145.200 123.780,145.200 124.000 C 145.200 124.220,144.957 124.400,144.659 124.400 C 144.362 124.400,143.554 124.940,142.863 125.600 C 142.172 126.260,141.408 126.800,141.164 126.800 C 140.920 126.800,140.217 127.340,139.600 128.000 C 138.983 128.660,138.279 129.200,138.035 129.200 C 137.534 129.200,128.400 138.216,128.400 138.712 C 128.400 138.888,127.680 139.828,126.800 140.800 C 125.920 141.772,125.200 142.718,125.200 142.901 C 125.200 143.084,124.840 143.620,124.400 144.092 C 123.960 144.564,123.600 145.187,123.600 145.475 C 123.600 145.764,123.420 146.000,123.200 146.000 C 122.980 146.000,122.800 146.360,122.800 146.800 C 122.800 147.240,122.620 147.600,122.400 147.600 C 122.180 147.600,122.000 147.920,122.000 148.312 C 122.000 148.703,121.640 149.283,121.200 149.600 C 120.760 149.917,120.400 150.497,120.400 150.888 C 120.400 151.280,120.220 151.600,120.000 151.600 C 119.780 151.600,119.600 151.949,119.600 152.376 C 119.600 152.803,119.420 153.264,119.200 153.400 C 118.980 153.536,118.800 154.087,118.800 154.624 C 118.800 155.161,118.620 155.600,118.400 155.600 C 118.180 155.600,118.000 155.949,118.000 156.376 C 118.000 156.803,117.820 157.264,117.600 157.400 C 117.380 157.536,117.200 158.076,117.200 158.600 C 117.200 159.124,117.020 159.664,116.800 159.800 C 116.580 159.936,116.400 160.476,116.400 161.000 C 116.400 161.524,116.220 162.064,116.000 162.200 C 115.780 162.336,115.600 163.067,115.600 163.824 C 115.600 164.581,115.420 165.200,115.200 165.200 C 114.980 165.200,114.800 166.100,114.800 167.200 C 114.800 168.300,114.620 169.200,114.400 169.200 C 114.180 169.200,114.000 170.089,114.000 171.176 C 114.000 172.263,113.820 173.264,113.600 173.400 C 113.368 173.543,113.200 175.737,113.200 178.624 C 113.200 181.675,113.045 183.600,112.800 183.600 C 112.578 183.600,112.400 184.667,112.400 186.000 C 112.400 187.333,112.578 188.400,112.800 188.400 C 113.045 188.400,113.200 190.325,113.200 193.376 C 113.200 196.263,113.368 198.457,113.600 198.600 C 113.820 198.736,114.000 199.737,114.000 200.824 C 114.000 201.911,114.180 202.800,114.400 202.800 C 114.620 202.800,114.800 203.700,114.800 204.800 C 114.800 205.900,114.980 206.800,115.200 206.800 C 115.420 206.800,115.600 207.419,115.600 208.176 C 115.600 208.933,115.780 209.664,116.000 209.800 C 116.220 209.936,116.400 210.399,116.400 210.829 C 116.400 211.259,116.580 211.968,116.800 212.405 C 117.020 212.842,117.380 213.558,117.600 213.995 C 117.820 214.432,118.000 215.152,118.000 215.595 C 118.000 216.038,118.180 216.400,118.400 216.400 C 118.620 216.400,118.800 216.760,118.800 217.200 C 118.800 217.640,118.980 218.000,119.200 218.000 C 119.420 218.000,119.600 218.360,119.600 218.800 C 119.600 219.240,119.780 219.600,120.000 219.600 C 120.220 219.600,120.400 219.960,120.400 220.400 C 120.400 220.840,120.580 221.200,120.800 221.200 C 121.020 221.200,121.200 221.520,121.200 221.912 C 121.200 222.303,121.560 222.883,122.000 223.200 C 122.440 223.517,122.800 224.057,122.800 224.400 C 122.800 224.743,123.160 225.283,123.600 225.600 C 124.040 225.917,124.400 226.425,124.400 226.728 C 124.400 227.031,124.940 227.783,125.600 228.400 C 126.260 229.017,126.800 229.722,126.800 229.967 C 126.800 230.544,132.649 236.400,133.225 236.400 C 133.466 236.400,134.354 237.120,135.200 238.000 C 136.046 238.880,136.982 239.600,137.280 239.600 C 137.579 239.600,138.083 239.960,138.400 240.400 C 138.717 240.840,139.297 241.200,139.688 241.200 C 140.080 241.200,140.400 241.380,140.400 241.600 C 140.400 241.820,140.760 242.000,141.200 242.000 C 141.640 242.000,142.000 242.147,142.000 242.326 C 142.000 242.792,145.131 244.400,146.038 244.400 C 146.457 244.400,146.800 244.580,146.800 244.800 C 146.800 245.020,147.160 245.200,147.600 245.200 C 148.040 245.200,148.400 245.380,148.400 245.600 C 148.400 245.820,148.762 246.000,149.205 246.000 C 149.983 246.000,150.369 246.142,152.295 247.138 C 152.787 247.392,153.631 247.600,154.171 247.600 C 154.711 247.600,155.264 247.780,155.400 248.000 C 155.536 248.220,156.357 248.400,157.224 248.400 C 158.091 248.400,158.800 248.580,158.800 248.800 C 158.800 249.020,159.700 249.200,160.800 249.200 C 161.900 249.200,162.800 249.380,162.800 249.600 C 162.800 249.837,164.267 250.000,166.400 250.000 C 168.533 250.000,170.000 250.163,170.000 250.400 C 170.000 250.649,172.267 250.800,176.000 250.800 C 179.733 250.800,182.000 250.649,182.000 250.400 C 182.000 250.158,183.733 250.000,186.400 250.000 C 189.067 250.000,190.800 249.842,190.800 249.600 C 190.800 249.375,191.925 249.200,193.376 249.200 C 194.793 249.200,196.064 249.020,196.200 248.800 C 196.336 248.580,197.337 248.400,198.424 248.400 C 199.511 248.400,200.400 248.220,200.400 248.000 C 200.400 247.780,201.120 247.600,202.000 247.600 C 202.880 247.600,203.600 247.420,203.600 247.200 C 203.600 246.980,204.219 246.800,204.976 246.800 C 205.733 246.800,206.464 246.620,206.600 246.400 C 206.736 246.180,207.276 246.000,207.800 246.000 C 208.324 246.000,208.864 245.820,209.000 245.600 C 209.136 245.380,209.597 245.200,210.024 245.200 C 210.451 245.200,210.800 245.020,210.800 244.800 C 210.800 244.580,211.160 244.400,211.600 244.400 C 212.040 244.400,212.400 244.220,212.400 244.000 C 212.400 243.780,212.805 243.596,213.300 243.591 C 213.795 243.586,214.650 243.230,215.200 242.800 C 215.750 242.370,216.425 242.014,216.700 242.009 C 216.975 242.004,217.200 241.820,217.200 241.600 C 217.200 241.380,217.560 241.200,218.000 241.200 C 218.440 241.200,218.800 241.020,218.800 240.800 C 218.800 240.580,219.160 240.400,219.600 240.400 C 220.040 240.400,220.400 240.250,220.400 240.068 C 220.400 239.885,220.895 239.480,221.500 239.168 C 222.105 238.855,222.949 238.285,223.375 237.900 C 223.802 237.515,224.347 237.200,224.587 237.200 C 224.827 237.200,225.283 236.840,225.600 236.400 C 225.917 235.960,226.425 235.600,226.728 235.600 C 227.031 235.600,227.783 235.060,228.400 234.400 C 229.017 233.740,229.703 233.200,229.926 233.200 C 230.148 233.200,231.427 232.120,232.768 230.800 C 234.108 229.480,235.355 228.400,235.539 228.400 C 235.722 228.400,237.348 226.960,239.151 225.200 C 240.954 223.440,242.616 222.000,242.843 222.000 C 243.357 222.000,244.400 223.013,244.400 223.512 C 244.400 223.715,244.940 224.446,245.600 225.137 C 246.260 225.828,246.800 226.625,246.800 226.908 C 246.800 227.191,247.160 227.683,247.600 228.000 C 248.040 228.317,248.400 228.780,248.400 229.029 C 248.400 229.278,248.940 230.046,249.600 230.737 C 250.260 231.428,250.800 232.156,250.800 232.356 C 250.800 232.556,251.700 233.638,252.800 234.761 C 253.900 235.885,254.800 236.879,254.800 236.971 C 254.800 237.265,260.274 242.800,260.565 242.800 C 260.719 242.800,261.904 243.880,263.200 245.200 C 264.496 246.520,265.836 247.600,266.178 247.600 C 266.520 247.600,266.800 247.780,266.800 248.000 C 266.800 248.845,274.956 248.487,275.908 247.600 C 276.380 247.160,276.966 246.800,277.209 246.800 C 277.453 246.800,278.529 245.900,279.600 244.800 C 280.671 243.700,281.724 242.800,281.939 242.800 C 282.154 242.800,283.427 241.720,284.768 240.400 C 286.108 239.080,287.394 238.000,287.625 238.000 C 287.856 238.000,289.104 236.920,290.400 235.600 C 291.696 234.280,292.930 233.200,293.143 233.200 C 293.356 233.200,294.627 232.120,295.968 230.800 C 297.308 229.480,298.563 228.400,298.755 228.400 C 298.947 228.400,300.587 226.960,302.400 225.200 C 304.213 223.440,305.870 222.000,306.083 222.000 C 306.896 222.000,310.800 217.487,310.800 216.546 C 310.800 216.026,310.980 215.600,311.200 215.600 C 311.420 215.600,311.600 214.700,311.600 213.600 C 311.600 212.500,311.420 211.600,311.200 211.600 C 310.980 211.600,310.800 211.060,310.800 210.400 C 310.800 209.740,310.620 209.200,310.400 209.200 C 310.180 209.200,310.000 208.880,310.000 208.488 C 310.000 208.097,309.640 207.517,309.200 207.200 C 308.760 206.883,308.400 206.431,308.400 206.196 C 308.400 205.960,307.680 204.972,306.800 204.000 C 305.920 203.028,305.200 202.088,305.200 201.912 C 305.200 201.737,304.660 201.028,304.000 200.337 C 303.340 199.646,302.800 198.878,302.800 198.629 C 302.800 198.380,302.440 197.917,302.000 197.600 C 301.560 197.283,301.200 196.703,301.200 196.312 C 301.200 195.920,301.020 195.600,300.800 195.600 C 300.580 195.600,300.400 195.280,300.400 194.888 C 300.400 194.497,300.040 193.917,299.600 193.600 C 299.160 193.283,298.800 192.703,298.800 192.312 C 298.800 191.920,298.620 191.600,298.400 191.600 C 298.180 191.600,298.000 191.060,298.000 190.400 C 298.000 189.740,297.820 189.200,297.600 189.200 C 297.380 189.200,297.200 188.840,297.200 188.400 C 297.200 187.960,297.020 187.600,296.800 187.600 C 296.580 187.600,296.400 187.060,296.400 186.400 C 296.400 185.740,296.220 185.200,296.000 185.200 C 295.780 185.200,295.600 184.480,295.600 183.600 C 295.600 182.720,295.420 182.000,295.200 182.000 C 294.980 182.000,294.800 181.100,294.800 180.000 C 294.800 178.900,294.620 178.000,294.400 178.000 C 294.135 178.000,294.000 160.875,294.000 127.424 C 294.000 94.137,293.863 76.763,293.600 76.600 C 293.380 76.464,293.200 74.743,293.200 72.776 C 293.200 70.659,293.037 69.200,292.800 69.200 C 292.578 69.200,292.400 68.133,292.400 66.800 C 292.400 65.467,292.222 64.400,292.000 64.400 C 291.780 64.400,291.600 63.601,291.600 62.624 C 291.600 61.647,291.420 60.736,291.200 60.600 C 290.980 60.464,290.800 59.823,290.800 59.176 C 290.800 58.529,290.620 58.000,290.400 58.000 C 290.180 58.000,290.000 57.460,290.000 56.800 C 290.000 56.140,289.820 55.600,289.600 55.600 C 289.380 55.600,289.200 55.060,289.200 54.400 C 289.200 53.740,289.020 53.200,288.800 53.200 C 288.580 53.200,288.400 52.761,288.400 52.224 C 288.400 51.687,288.220 51.136,288.000 51.000 C 287.780 50.864,287.600 50.418,287.600 50.010 C 287.600 49.601,287.465 49.207,287.300 49.133 C 287.135 49.060,286.567 48.145,286.037 47.100 C 285.508 46.055,284.923 45.200,284.737 45.200 C 284.552 45.200,284.400 44.880,284.400 44.488 C 284.400 44.097,284.040 43.517,283.600 43.200 C 283.160 42.883,282.800 42.411,282.800 42.152 C 282.800 41.893,281.900 40.762,280.800 39.639 C 279.700 38.515,278.800 37.453,278.800 37.279 C 278.800 36.872,275.867 34.000,275.452 34.000 C 275.279 34.000,274.446 33.280,273.600 32.400 C 272.754 31.520,271.867 30.800,271.628 30.800 C 271.388 30.800,270.628 30.260,269.937 29.600 C 269.246 28.940,268.521 28.400,268.324 28.400 C 268.127 28.400,267.580 28.040,267.108 27.600 C 266.636 27.160,266.013 26.800,265.725 26.800 C 265.436 26.800,265.200 26.620,265.200 26.400 C 265.200 26.180,264.840 26.000,264.400 26.000 C 263.960 26.000,263.600 25.820,263.600 25.600 C 263.600 25.380,263.240 25.200,262.800 25.200 C 262.360 25.200,262.000 25.020,262.000 24.800 C 262.000 24.580,261.640 24.400,261.200 24.400 C 260.760 24.400,260.400 24.220,260.400 24.000 C 260.400 23.780,260.040 23.600,259.600 23.600 C 259.160 23.600,258.800 23.420,258.800 23.200 C 258.800 22.980,258.440 22.800,258.000 22.800 C 257.560 22.800,257.200 22.620,257.200 22.400 C 257.200 22.180,256.840 22.000,256.400 22.000 C 255.960 22.000,255.600 21.820,255.600 21.600 C 255.600 21.380,255.161 21.200,254.624 21.200 C 254.087 21.200,253.536 21.020,253.400 20.800 C 253.264 20.580,252.803 20.400,252.376 20.400 C 251.949 20.400,251.600 20.220,251.600 20.000 C 251.600 19.780,251.060 19.600,250.400 19.600 C 249.740 19.600,249.200 19.420,249.200 19.200 C 249.200 18.980,248.660 18.800,248.000 18.800 C 247.340 18.800,246.800 18.620,246.800 18.400 C 246.800 18.180,246.271 18.000,245.624 18.000 C 244.977 18.000,244.336 17.820,244.200 17.600 C 244.064 17.380,243.333 17.200,242.576 17.200 C 241.819 17.200,241.200 17.020,241.200 16.800 C 241.200 16.580,240.491 16.400,239.624 16.400 C 238.757 16.400,237.936 16.220,237.800 16.000 C 237.664 15.780,236.674 15.600,235.600 15.600 C 234.526 15.600,233.536 15.420,233.400 15.200 C 233.264 14.980,232.184 14.800,231.000 14.800 C 229.816 14.800,228.736 14.620,228.600 14.400 C 228.260 13.850,193.200 13.850,193.200 14.400 M234.000 152.400 C 234.000 161.733,233.859 166.800,233.600 166.800 C 233.378 166.800,233.200 167.867,233.200 169.200 C 233.200 170.533,233.022 171.600,232.800 171.600 C 232.580 171.600,232.400 172.500,232.400 173.600 C 232.400 174.700,232.220 175.600,232.000 175.600 C 231.780 175.600,231.600 176.140,231.600 176.800 C 231.600 177.460,231.420 178.000,231.200 178.000 C 230.980 178.000,230.800 178.540,230.800 179.200 C 230.800 179.860,230.620 180.400,230.400 180.400 C 230.180 180.400,230.000 180.940,230.000 181.600 C 230.000 182.260,229.820 182.800,229.600 182.800 C 229.380 182.800,229.200 183.160,229.200 183.600 C 229.200 184.040,229.020 184.400,228.800 184.400 C 228.580 184.400,228.400 184.760,228.400 185.200 C 228.400 185.640,228.220 186.000,228.000 186.000 C 227.780 186.000,227.600 186.320,227.600 186.712 C 227.600 187.103,227.240 187.683,226.800 188.000 C 226.360 188.317,226.000 188.897,226.000 189.288 C 226.000 189.680,225.820 190.000,225.600 190.000 C 225.380 190.000,225.200 190.360,225.200 190.800 C 225.200 191.240,225.020 191.600,224.800 191.600 C 224.580 191.600,224.400 191.825,224.399 192.100 C 224.399 192.375,223.859 193.230,223.200 194.000 C 222.541 194.770,222.001 195.538,222.001 195.707 C 221.999 196.236,216.843 201.200,216.296 201.200 C 216.010 201.200,215.517 201.560,215.200 202.000 C 214.883 202.440,214.343 202.800,214.000 202.800 C 213.657 202.800,213.117 203.160,212.800 203.600 C 212.483 204.040,211.824 204.400,211.335 204.400 C 210.847 204.400,210.336 204.580,210.200 204.800 C 210.064 205.020,209.603 205.200,209.176 205.200 C 208.749 205.200,208.400 205.380,208.400 205.600 C 208.400 205.820,208.051 206.000,207.624 206.000 C 207.197 206.000,206.736 206.180,206.600 206.400 C 206.464 206.620,205.553 206.800,204.576 206.800 C 203.599 206.800,202.800 206.980,202.800 207.200 C 202.800 207.444,200.933 207.600,198.000 207.600 C 195.067 207.600,193.200 207.444,193.200 207.200 C 193.200 206.980,192.671 206.800,192.024 206.800 C 191.377 206.800,190.736 206.620,190.600 206.400 C 190.464 206.180,189.913 206.000,189.376 206.000 C 188.839 206.000,188.400 205.820,188.400 205.600 C 188.400 205.380,188.080 205.200,187.688 205.200 C 187.297 205.200,186.717 204.840,186.400 204.400 C 186.083 203.960,185.589 203.600,185.303 203.600 C 184.625 203.600,180.400 199.375,180.400 198.697 C 180.400 198.411,180.040 197.917,179.600 197.600 C 179.160 197.283,178.800 196.703,178.800 196.312 C 178.800 195.920,178.620 195.600,178.400 195.600 C 178.180 195.600,178.000 195.240,178.000 194.800 C 178.000 194.360,177.820 194.000,177.600 194.000 C 177.380 194.000,177.200 193.460,177.200 192.800 C 177.200 192.140,177.020 191.600,176.800 191.600 C 176.580 191.600,176.400 191.060,176.400 190.400 C 176.400 189.740,176.220 189.200,176.000 189.200 C 175.780 189.200,175.600 188.300,175.600 187.200 C 175.600 186.100,175.420 185.200,175.200 185.200 C 174.949 185.200,174.800 182.667,174.800 178.400 C 174.800 174.133,174.949 171.600,175.200 171.600 C 175.420 171.600,175.600 170.891,175.600 170.024 C 175.600 169.157,175.780 168.336,176.000 168.200 C 176.220 168.064,176.400 167.344,176.400 166.600 C 176.400 165.856,176.580 165.136,176.800 165.000 C 177.020 164.864,177.200 164.313,177.200 163.776 C 177.200 163.239,177.380 162.800,177.600 162.800 C 177.820 162.800,178.000 162.440,178.000 162.000 C 178.000 161.560,178.180 161.200,178.400 161.200 C 178.620 161.200,178.800 160.840,178.800 160.400 C 178.800 159.960,178.980 159.600,179.200 159.600 C 179.420 159.600,179.600 159.280,179.600 158.888 C 179.600 158.497,179.960 157.917,180.400 157.600 C 180.840 157.283,181.200 156.791,181.200 156.507 C 181.200 155.832,188.632 148.400,189.307 148.400 C 189.591 148.400,190.083 148.040,190.400 147.600 C 190.717 147.160,191.297 146.800,191.688 146.800 C 192.080 146.800,192.400 146.620,192.400 146.400 C 192.400 146.180,192.760 146.000,193.200 146.000 C 193.640 146.000,194.000 145.820,194.000 145.600 C 194.000 145.380,194.360 145.200,194.800 145.200 C 195.240 145.200,195.600 145.020,195.600 144.800 C 195.600 144.580,195.960 144.400,196.400 144.400 C 196.840 144.400,197.200 144.220,197.200 144.000 C 197.200 143.780,197.560 143.600,198.000 143.600 C 198.440 143.600,198.800 143.420,198.800 143.200 C 198.800 142.980,199.340 142.800,200.000 142.800 C 200.660 142.800,201.200 142.620,201.200 142.400 C 201.200 142.180,201.740 142.000,202.400 142.000 C 203.060 142.000,203.600 141.820,203.600 141.600 C 203.600 141.380,204.219 141.200,204.976 141.200 C 205.733 141.200,206.464 141.020,206.600 140.800 C 206.736 140.580,207.737 140.400,208.824 140.400 C 209.911 140.400,210.800 140.220,210.800 140.000 C 210.800 139.771,212.000 139.600,213.600 139.600 C 215.200 139.600,216.400 139.429,216.400 139.200 C 216.400 138.946,219.392 138.800,224.576 138.800 C 229.596 138.800,232.848 138.646,233.000 138.400 C 233.852 137.022,234.000 139.100,234.000 152.400 " stroke="none" fill="#040404" fill-rule="evenodd"></path><path id="path2" d="" stroke="none" fill="#c0b028" fill-rule="evenodd"></path><path id="path3" d="" stroke="none" fill="#405c28" fill-rule="evenodd"></path><path id="path4" d="" stroke="none" fill="#440428" fill-rule="evenodd"></path></g></svg>