<?xml version="1.0" standalone="no"?>
<!DOCTYPE svg PUBLIC "-//W3C//DTD SVG 20010904//EN"
 "http://www.w3.org/TR/2001/REC-SVG-20010904/DTD/svg10.dtd">
<svg version="1.0" xmlns="http://www.w3.org/2000/svg"
 width="500.000000pt" height="500.000000pt" viewBox="0 0 500.000000 500.000000"
 preserveAspectRatio="xMidYMid meet">
<metadata>
Created by potrace 1.10, written by Peter Selinger 2001-2011
</metadata>
<g transform="translate(0.000000,500.000000) scale(0.100000,-0.100000)"
fill="#000000" stroke="none">
<path d="M1795 4761 c-11 -11 -96 -65 -953 -606 l-601 -380 -1 -996 0 -996
452 -288 c249 -159 603 -385 786 -502 183 -117 335 -213 337 -213 2 0 98 59
212 132 714 452 1346 848 1354 848 17 0 9 19 -13 31 -13 7 -56 34 -96 60 l-72
48 -258 -163 c-621 -393 -1107 -699 -1118 -703 -7 -3 -142 78 -301 179 -158
101 -362 231 -452 288 -90 58 -269 173 -398 255 l-234 150 0 874 0 874 398
251 c219 139 522 330 673 425 151 96 282 180 291 188 15 12 25 8 88 -32 40
-26 75 -45 79 -43 5 2 49 30 100 62 l92 60 -38 21 c-20 12 -95 58 -165 103
-130 83 -145 90 -162 73z m145 -92 c121 -75 150 -97 150 -111 0 -12 -113 -82
-131 -81 -9 1 -38 15 -64 32 -82 52 -30 77 -630 -303 -328 -208 -352 -224
-403 -258 -24 -15 -45 -28 -48 -28 -2 0 -30 -17 -62 -38 -31 -21 -117 -76
-189 -123 -102 -64 -135 -91 -143 -113 -7 -19 -10 -326 -10 -881 0 -711 3
-854 14 -871 8 -11 53 -44 101 -74 101 -64 328 -210 435 -279 111 -72 319
-205 338 -216 19 -11 191 -121 376 -239 65 -42 128 -76 140 -76 25 0 47 13
326 190 209 132 487 307 690 435 69 43 169 107 224 142 145 95 134 92 210 47
36 -21 66 -43 66 -49 0 -5 -11 -17 -23 -26 -19 -13 -485 -308 -542 -342 -20
-13 -86 -54 -330 -209 -82 -52 -196 -123 -253 -159 -57 -35 -129 -81 -160
-101 -119 -77 -191 -118 -208 -118 -19 0 -42 14 -199 116 -60 39 -191 123
-290 186 -99 63 -334 213 -523 334 -188 120 -371 236 -405 257 -34 21 -77 50
-94 63 l-33 25 0 980 0 979 88 57 c101 66 386 246 762 483 146 92 361 229 479
304 118 75 217 136 221 136 3 0 57 -32 120 -71z"/>
<path d="M2240 4566 c-346 -226 -1194 -778 -1262 -821 -27 -17 -48 -33 -48
-36 0 -3 24 -21 53 -40 28 -18 214 -139 412 -268 198 -128 540 -351 760 -494
220 -143 450 -292 510 -332 899 -585 1085 -706 1099 -711 26 -10 19 -19 -46
-60 -35 -21 -126 -79 -203 -129 -77 -51 -246 -161 -375 -245 -129 -84 -317
-206 -417 -272 l-182 -119 -56 37 -55 37 -90 -59 c-49 -32 -88 -62 -87 -66 3
-9 276 -188 287 -188 5 0 73 42 152 93 79 52 249 163 378 247 306 198 475 309
608 395 59 39 192 125 295 192 182 118 187 122 165 136 -85 54 -913 592 -2133
1387 -264 172 -531 344 -592 384 -62 39 -113 74 -113 77 0 3 13 12 29 20 26
13 524 336 1012 656 l200 131 117 -77 c64 -43 162 -107 217 -143 55 -36 231
-149 390 -253 160 -104 361 -235 448 -292 l158 -103 95 57 c52 31 94 59 94 62
-1 3 -45 34 -98 67 -53 34 -392 254 -751 489 -360 235 -660 429 -665 431 -6 2
-144 -83 -306 -190z m630 -49 c321 -209 446 -291 672 -439 103 -68 248 -162
323 -210 74 -48 135 -92 135 -98 0 -13 -104 -80 -125 -80 -17 0 -37 12 -225
135 -69 45 -172 112 -230 150 -58 37 -157 102 -220 143 -63 41 -158 103 -210
137 -52 34 -110 70 -127 80 -18 11 -33 23 -33 27 0 4 -5 8 -10 8 -6 0 -58 32
-118 71 -172 115 -146 115 -314 6 -78 -51 -156 -102 -173 -112 -16 -10 -95
-62 -175 -113 -80 -52 -181 -118 -225 -147 -474 -308 -514 -335 -521 -357 -10
-32 -44 -7 491 -355 72 -47 216 -141 320 -209 105 -68 254 -166 333 -217 78
-50 198 -128 265 -172 67 -44 226 -147 352 -229 240 -157 444 -289 630 -411
61 -39 144 -93 185 -120 93 -60 223 -146 230 -152 7 -6 -52 -53 -67 -53 -6 0
-13 -3 -15 -8 -1 -4 -48 -36 -103 -72 -93 -60 -168 -108 -485 -315 -69 -45
-172 -113 -230 -150 -58 -37 -148 -96 -200 -130 -52 -34 -149 -97 -215 -140
-66 -43 -143 -93 -172 -112 -28 -19 -60 -35 -70 -35 -23 -2 -232 133 -233 149
0 18 91 82 116 83 12 0 42 -12 68 -26 46 -26 46 -26 82 -7 20 10 121 74 226
143 104 69 200 132 214 140 35 22 204 132 321 208 57 37 169 110 250 162 243
157 242 156 128 231 -114 76 -495 324 -665 434 -36 23 -137 89 -225 147 -88
57 -205 133 -259 168 -55 36 -155 101 -223 145 -67 44 -206 134 -307 200 -102
66 -282 183 -400 260 -118 77 -312 203 -430 280 -119 77 -216 146 -216 153 0
11 107 84 560 378 126 82 319 208 505 329 44 29 154 101 245 160 91 60 183
118 204 131 l39 22 41 -25 c23 -15 151 -98 286 -186z"/>
<path d="M1780 4446 c-19 -13 -138 -90 -265 -169 -126 -80 -261 -165 -300
-190 -38 -24 -140 -88 -225 -142 -85 -54 -220 -139 -300 -190 -80 -50 -160
-100 -177 -110 l-33 -19 0 -847 0 -846 422 -269 c232 -148 508 -324 612 -391
105 -67 217 -138 248 -158 l57 -35 43 29 c24 16 113 73 198 126 85 54 265 168
400 253 135 85 342 215 460 289 118 75 218 138 223 142 4 4 -50 42 -120 85
-71 42 -175 107 -233 143 -132 82 -178 109 -165 96 6 -6 102 -68 215 -138 283
-176 272 -168 257 -187 -6 -9 -64 -49 -127 -89 -63 -39 -137 -86 -165 -104
-27 -17 -90 -57 -140 -89 -49 -32 -146 -93 -215 -136 -69 -43 -192 -120 -273
-172 -283 -178 -328 -206 -346 -214 -15 -8 -67 18 -168 84 -40 26 -132 85
-205 131 -73 47 -187 120 -253 162 -66 43 -154 99 -195 125 -41 26 -97 62
-125 80 -27 17 -104 66 -170 107 -66 42 -125 80 -131 85 -5 5 -20 14 -31 21
-57 30 -53 -29 -53 870 0 776 1 829 18 844 9 8 70 48 134 89 311 195 359 225
433 273 98 64 498 317 636 403 103 64 116 67 147 30 9 -11 -10 -27 -89 -78
-855 -556 -929 -605 -929 -613 0 -12 25 3 284 173 133 86 288 187 346 225 58
38 161 105 230 150 69 45 144 93 167 106 24 13 43 26 43 29 0 4 -95 60 -103
60 -1 0 -18 -11 -37 -24z"/>
<path d="M195 2780 c0 -564 1 -794 2 -512 2 281 2 743 0 1025 -1 281 -2 51 -2
-513z"/>
<path d="M855 3680 c3 -6 45 -35 93 -66 48 -31 116 -76 152 -99 36 -23 139
-91 230 -150 617 -401 734 -479 738 -491 1 -7 -38 -37 -88 -69 -84 -53 -111
-75 -74 -61 8 3 60 34 115 67 l100 62 -28 17 c-16 9 -87 55 -158 102 -72 46
-184 120 -250 163 -312 202 -400 260 -603 392 -206 136 -241 156 -227 133z"/>
<path d="M1902 2687 c11 -11 55 -40 110 -72 9 -5 60 -36 113 -67 53 -32 99
-58 102 -58 4 0 14 -6 22 -13 23 -20 91 -60 91 -54 0 5 -211 141 -313 203 -27
16 -65 39 -85 51 -41 25 -60 30 -40 10z"/>
<path d="M2359 2407 c7 -9 17 -17 22 -17 5 0 52 -28 106 -63 128 -82 127 -82
120 -70 -4 6 -57 41 -119 80 -151 94 -146 91 -129 70z"/>
</g>
</svg>
