<svg version="1.1" id="Layer_1" xmlns="http://www.w3.org/2000/svg" xmlns:xlink="http://www.w3.org/1999/xlink" x="0px" y="0px"
	 width="100%" viewBox="0 0 896 896" enable-background="new 0 0 896 896" xml:space="preserve">
<path fill="#000000" opacity="1.000000" stroke="none" 
	d="
M897.000000,517.531372 
	C894.100342,530.454041 892.537231,543.159485 889.529114,555.611755 
	C879.021362,599.108887 862.511902,640.156250 839.940613,678.759766 
	C817.076721,717.863647 788.770447,752.656494 755.432007,783.244812 
	C710.215759,824.731262 658.723328,855.981628 600.748169,876.355347 
	C576.207275,884.979675 551.217529,891.872498 525.418518,895.592102 
	C524.452698,895.731323 523.538330,896.227234 522.300049,896.778442 
	C474.979095,897.000000 427.958221,897.000000 380.468658,897.000000 
	C369.782867,894.778381 359.538269,892.675354 349.353241,890.315125 
	C298.088989,878.435303 250.434723,858.082458 206.292328,829.421387 
	C174.122391,808.533875 145.040237,783.981384 119.211494,755.686523 
	C82.371475,715.329163 53.484489,669.887146 33.169220,619.060608 
	C24.081163,596.323303 17.001984,573.018311 11.477231,549.160339 
	C6.286847,526.746277 3.149370,504.108978 1.797581,481.181793 
	C1.749542,480.367004 1.453644,479.566833 1.136633,478.379944 
	C1.000000,460.645782 1.000000,443.291534 1.000000,425.468658 
	C2.666658,420.351013 2.143027,415.428467 2.471627,410.666260 
	C4.367430,383.191437 9.576542,356.265594 17.071417,329.904755 
	C34.502304,268.597076 63.333210,213.085983 104.148483,163.970688 
	C146.288391,113.261368 196.988083,73.417618 256.361633,44.730099 
	C284.016418,31.368135 312.734711,20.817089 342.647461,13.685193 
	C364.989532,8.358323 387.424835,3.553364 410.485535,2.541274 
	C412.452209,2.454960 414.393768,1.797343 416.673523,1.202563 
	C438.687561,1.000000 460.375122,1.000000 482.531342,1.000000 
	C490.011627,3.729248 497.483307,2.578515 504.717316,3.462193 
	C535.544617,7.227937 565.628723,14.104709 595.033997,23.999172 
	C636.498962,37.951565 675.120728,57.571499 710.704895,83.005669 
	C779.351562,132.071533 830.820740,195.135544 864.697815,272.520752 
	C877.219666,301.124329 886.095154,330.844818 892.863831,361.243378 
	C894.414429,368.207275 895.399170,375.297150 896.822144,382.664551 
	C897.000000,427.687561 897.000000,472.375122 897.000000,517.531372 
M308.468048,39.033539 
	C249.282913,59.757561 196.748520,91.532951 151.282593,134.680878 
	C98.460403,184.810043 60.337601,244.472458 37.191395,313.591370 
	C26.432135,345.720551 19.644989,378.631378 16.776737,412.453003 
	C14.701406,436.924652 14.579564,461.322906 16.339266,485.761871 
	C18.095926,510.158600 22.101925,534.195679 28.072979,557.930908 
	C34.996975,585.454163 44.552643,612.017273 56.730865,637.621155 
	C75.098282,676.237366 98.677757,711.364685 127.355003,743.132874 
	C158.431885,777.559326 194.028107,806.328247 234.175659,829.453674 
	C267.090851,848.413147 301.919891,862.696594 338.676819,872.507202 
	C368.566711,880.485046 398.927490,885.245483 429.722809,886.662476 
	C452.156311,887.694763 474.641632,887.331665 497.076691,884.871338 
	C522.787903,882.051758 548.140320,877.470093 572.918396,870.210632 
	C604.658325,860.911499 635.024780,848.159363 663.900452,831.924866 
	C711.031494,805.426697 752.009460,771.525818 786.583862,729.961182 
	C819.927002,689.876892 845.390137,645.302185 862.854431,596.109558 
	C875.678955,559.985962 883.337463,522.759705 886.464722,484.693451 
	C888.535706,459.485138 887.992554,434.195679 885.451538,408.909973 
	C882.966919,384.185089 878.589600,359.892151 872.116882,335.967590 
	C861.620056,297.169250 845.788391,260.630219 824.969971,226.234467 
	C800.958069,186.562576 771.384705,151.576630 736.335632,121.273087 
	C699.089661,89.070122 657.516968,63.906651 611.754700,45.668842 
	C582.247437,33.909203 551.796875,25.405241 520.464050,20.539730 
	C488.661407,15.601259 456.633972,13.616900 424.400238,16.051258 
	C405.966888,17.443380 387.643402,19.417286 369.464661,22.760775 
	C348.960785,26.531908 328.952393,32.159245 308.468048,39.033539 
z"/>
<path fill="#000000" opacity="1.000000" stroke="none" 
	d="
M174.599060,733.399841 
	C135.802414,694.817200 106.272079,650.390442 85.322342,600.316772 
	C72.497459,569.662964 63.650959,537.813049 58.853226,504.887848 
	C56.065136,485.754150 54.713531,466.501770 54.977348,447.182678 
	C55.382648,417.503052 58.747803,388.159943 65.857933,359.283752 
	C88.180344,268.626221 136.349091,194.588394 209.780945,137.213974 
	C258.924500,98.816719 314.597870,74.083824 375.761261,62.009830 
	C406.258545,55.989491 437.154480,53.543812 468.225555,55.084633 
	C507.008484,57.007889 544.856384,64.001518 581.568298,76.983681 
	C603.934143,84.892754 625.427429,94.609741 646.139771,106.123711 
	C650.691223,108.653831 650.841064,109.535690 647.328369,113.534355 
	C630.397949,132.807159 613.433411,152.050369 596.594971,171.403259 
	C592.633606,175.956207 589.699097,181.078659 588.967896,187.362976 
	C588.509827,191.300400 587.199524,195.145676 586.185669,199.009750 
	C584.665466,204.803726 588.029724,208.403122 593.881714,207.065994 
	C604.496094,204.640717 615.087830,202.743820 625.968201,205.651535 
	C631.489807,207.127136 632.320312,208.467606 629.657959,213.671997 
	C628.155762,216.608414 626.342529,219.385651 624.606567,222.341583 
	C627.639160,225.138290 630.405029,225.232376 633.721191,223.102432 
	C638.759766,219.866135 643.846863,216.599915 649.246948,214.054184 
	C659.584656,209.180756 668.017456,212.977417 672.976135,223.278839 
	C677.338928,232.342178 676.158447,240.337036 670.154663,247.914017 
	C668.144348,250.451172 668.038879,252.348770 670.357056,254.817108 
	C675.038757,259.802246 679.031372,265.367981 682.841431,271.045197 
	C685.450928,274.933563 688.289978,278.511963 692.043518,281.466949 
	C697.534180,285.789459 701.759949,293.922180 697.247803,301.357513 
	C695.920044,303.545319 696.384949,305.811310 697.251648,308.087738 
	C698.855530,312.300018 700.207520,316.607727 700.390381,321.145416 
	C700.594604,326.212280 700.316284,331.158722 696.062012,334.904022 
	C693.303284,337.332642 694.032166,340.244171 695.280396,343.159271 
	C699.211182,352.339783 703.159241,361.513336 707.016602,370.724762 
	C710.377258,378.749756 713.460449,386.959869 712.110840,395.835205 
	C710.223755,408.244965 716.503296,418.413086 720.694824,429.125916 
	C729.257141,451.009705 740.747864,471.580688 749.799500,493.242371 
	C752.721924,500.236115 756.187134,507.559143 755.608337,515.185059 
	C754.686340,527.333923 745.908997,532.936707 735.167969,536.264038 
	C727.220947,538.725830 719.274292,541.207214 711.597168,544.490295 
	C706.828491,546.529602 704.814453,549.889465 704.908386,555.017700 
	C705.045776,562.512390 706.755371,569.663696 710.422668,576.050171 
	C714.020081,582.315247 713.677246,588.013794 710.230408,593.936340 
	C709.345459,595.456787 708.115723,596.587708 709.402222,598.819580 
	C713.503235,605.933899 712.996765,611.610229 706.302307,616.112549 
	C694.496521,624.052612 693.880920,634.974243 696.440247,647.016846 
	C700.750793,667.299072 696.237976,684.957092 680.102234,698.323547 
	C670.560791,706.227356 658.794495,710.619385 646.996460,714.362244 
	C629.450378,719.928650 611.521606,721.568970 593.204346,719.397766 
	C583.262878,718.219360 583.117432,718.389587 580.921875,726.880432 
	C572.257935,760.385925 576.386169,792.175720 593.904053,822.129883 
	C594.657410,823.418213 595.493286,824.708862 595.954407,826.109253 
	C598.423767,833.608215 595.329224,837.784546 587.534180,836.561035 
	C529.968201,827.525940 471.960693,829.340027 414.028595,829.209045 
	C407.309021,829.193848 400.734558,830.012817 394.407471,832.349854 
	C389.529175,834.151672 384.790802,832.617798 380.177124,831.501038 
	C370.828094,829.237915 361.562408,828.849060 351.953583,829.825317 
	C342.335754,830.802551 332.985168,828.799438 325.319458,822.158386 
	C322.083618,819.355042 318.472900,817.886475 314.286682,816.822388 
	C301.713379,813.626160 289.954285,808.598083 281.073822,798.582031 
	C279.547638,796.860779 277.841187,794.896118 277.312622,792.771545 
	C275.908905,787.128967 271.936768,784.627502 266.966400,783.012268 
	C249.079620,777.199890 249.687805,756.061401 260.368347,746.625244 
	C263.739532,743.646851 266.778900,740.242188 270.372589,737.574829 
	C288.165619,724.368286 285.521423,695.323669 271.922699,681.338623 
	C262.244720,671.385742 251.613174,662.629700 240.593063,654.276917 
	C237.960968,652.281921 236.120728,649.337830 232.351257,647.481934 
	C227.718857,654.268677 222.723251,660.834717 220.245621,668.857056 
	C210.025635,701.948547 217.132095,731.880737 236.909958,759.483826 
	C241.199097,765.469910 246.008911,770.971985 251.448441,775.932068 
	C253.050781,777.393188 254.648117,778.885376 255.567932,780.903564 
	C257.578461,785.315125 255.394775,788.655151 252.584320,791.696045 
	C249.675247,794.843689 247.748123,791.485413 245.803238,790.253296 
	C220.098602,773.968689 196.236572,755.354797 174.599060,733.399841 
M522.158936,543.591309 
	C517.447693,549.699768 511.266083,552.560791 503.526367,552.402344 
	C492.831146,552.183289 484.191650,547.942505 477.804260,539.420349 
	C475.026123,535.713684 472.147125,534.166687 467.613953,536.401794 
	C461.386047,539.472534 454.848663,537.786865 448.448456,536.922241 
	C445.847992,536.570923 444.586975,534.397644 444.024963,532.020386 
	C443.489929,529.757202 443.278198,527.419617 442.853638,525.127869 
	C440.764801,513.853088 437.110291,503.353851 429.197266,494.595093 
	C420.307556,484.755188 407.348633,482.944153 396.409607,490.480804 
	C390.141205,494.799530 385.878967,500.743256 383.550537,507.860260 
	C376.114197,530.589966 380.254883,551.422363 395.502350,569.578918 
	C401.484497,576.702454 406.472992,584.154663 410.385040,592.486877 
	C412.446838,596.878296 414.933533,601.019714 418.870819,604.075806 
	C426.199188,609.764099 436.195007,607.152222 439.883759,598.594482 
	C440.773163,596.531067 441.249237,594.046387 444.510559,593.648254 
	C446.575287,596.273376 447.380249,599.414490 446.253448,602.445801 
	C443.774261,609.115295 445.457825,614.410034 450.440094,619.114441 
	C452.246857,620.820435 453.686066,622.908875 455.377502,624.744934 
	C474.131409,645.102844 496.264008,661.433350 518.651184,677.404114 
	C543.027405,694.793823 569.505432,707.038574 599.885620,709.393188 
	C627.778320,711.555054 653.565002,706.228455 676.165405,688.836426 
	C680.821106,685.253662 683.974915,680.719055 685.781128,675.175659 
	C688.373596,667.218872 688.136963,659.072876 687.211731,650.935486 
	C686.093689,641.103149 686.579224,631.663086 692.313660,623.089661 
	C693.157166,621.828613 694.517151,620.500000 693.725464,618.311035 
	C691.110901,617.683960 688.381531,617.010132 685.642517,616.377747 
	C682.839355,615.730530 680.272034,614.572205 678.030945,612.778992 
	C676.877075,611.855652 675.481628,610.816528 676.460571,609.059387 
	C677.340942,607.479370 679.035095,607.452026 680.454529,607.925781 
	C682.329895,608.551819 684.066528,609.590637 685.868347,610.440247 
	C690.337708,612.547668 694.973389,613.914246 699.879272,612.371887 
	C705.195679,610.700439 706.022644,606.916809 702.037903,603.081421 
	C700.720520,601.813416 699.228638,600.728455 697.843628,599.528564 
	C695.894043,597.839478 695.809692,596.319275 698.087402,594.726807 
	C699.991150,593.395813 701.819946,591.911743 703.475342,590.285339 
	C704.875488,588.909790 706.481079,587.294067 705.122986,585.066284 
	C703.979553,583.190674 702.096985,583.476440 700.194885,583.716309 
	C694.123718,584.481750 689.230652,587.209900 685.207642,591.831909 
	C681.131409,596.515076 676.399170,600.409058 670.585144,602.885803 
	C666.880615,604.463989 663.083252,604.366394 659.294434,603.766174 
	C657.465210,603.476318 655.637939,602.324951 655.921692,600.092896 
	C656.249329,597.515015 658.371399,598.445984 659.894470,598.644470 
	C667.795288,599.674255 674.227783,597.217102 679.466187,591.117676 
	C684.930542,584.755127 690.882629,578.955322 699.410217,576.723572 
	C702.873169,575.817322 703.318176,573.549744 701.669495,570.598816 
	C699.430481,566.591187 698.753479,562.118652 698.041626,557.689514 
	C697.059204,551.577271 700.093445,545.701111 705.499634,542.523804 
	C711.297363,539.116394 717.713074,537.262329 723.958191,534.977173 
	C730.836853,532.460205 737.845520,530.237854 743.710938,525.585327 
	C746.943542,523.021179 748.886597,519.842407 747.978027,515.620361 
	C746.965210,510.913666 746.043762,506.174500 743.913208,501.765717 
	C733.769958,480.776184 724.263062,459.497955 714.970093,438.119141 
	C709.501770,425.539246 704.179688,413.008331 705.733582,398.790039 
	C706.119263,395.260254 705.255981,391.859009 703.940430,388.558746 
	C697.782654,373.111084 691.687744,357.638367 685.511902,342.197998 
	C684.054016,338.553253 682.014709,338.072754 678.633728,340.559723 
	C669.399048,347.352570 659.356506,351.714722 647.437439,349.472656 
	C644.488892,348.917999 642.469849,350.378510 641.046082,353.122375 
	C637.500610,359.955444 632.040222,364.955292 625.548889,369.025513 
	C616.995911,374.388428 607.455261,376.658722 597.691772,377.921051 
	C593.817505,378.421967 592.028442,380.153595 590.250610,383.323212 
	C582.542664,397.065216 572.104370,407.540588 555.786438,410.400330 
	C553.978455,410.717224 552.816895,411.708893 551.924377,413.232819 
	C547.995911,419.940369 546.052429,426.137177 550.420532,434.108429 
	C555.330139,443.067993 558.314941,452.993073 556.594360,463.827484 
	C554.557556,476.653473 549.029358,487.736084 540.245422,496.884033 
	C534.689453,502.670258 533.188049,509.318726 532.196167,516.616577 
	C530.908875,526.087952 528.621826,535.248901 522.158936,543.591309 
M168.084335,305.693848 
	C169.684540,302.769745 171.263062,299.833527 172.888184,296.923309 
	C197.869858,252.187332 231.596634,215.470337 274.063324,186.814621 
	C303.870453,166.701324 336.166565,151.992233 370.985504,142.980927 
	C390.472931,137.937485 410.235107,134.631287 430.407867,133.520569 
	C444.074585,132.768082 457.651642,132.900146 471.311859,133.519394 
	C484.657166,134.124344 497.816925,135.866455 510.874969,138.267838 
	C534.993408,142.703232 558.225708,150.214844 580.578674,160.286484 
	C584.397949,162.007339 586.610107,161.296661 589.137085,158.358917 
	C598.480835,147.496399 607.976624,136.764496 617.430481,125.996880 
	C620.914612,122.028587 624.711914,118.313835 628.105957,113.139008 
	C581.923401,89.027618 533.389648,74.881729 482.027740,70.848076 
	C410.646820,65.242233 342.604736,78.076012 278.770599,110.668221 
	C209.213379,146.182526 154.964417,198.152771 117.113976,266.526825 
	C75.690918,341.354523 61.189514,421.514008 73.473969,506.140808 
	C80.377159,553.696472 96.581856,598.265930 120.738770,639.846008 
	C143.467972,678.968689 198.755692,743.167603 213.397186,747.478638 
	C209.505493,739.888672 206.697006,732.052368 204.781784,723.966675 
	C199.918243,703.433716 200.350906,683.034546 207.430984,663.016174 
	C208.690109,659.456055 208.225494,656.968872 205.765274,654.025146 
	C182.703537,626.430603 164.633896,595.908325 152.351746,562.030273 
	C145.439697,542.964661 140.219330,523.516907 137.188965,503.408325 
	C135.057251,489.262939 133.184509,475.111084 133.024658,460.839600 
	C132.881500,448.058472 133.010513,435.307495 134.341736,422.470306 
	C136.214340,404.412415 139.161041,386.665009 143.686172,369.144226 
	C149.324753,347.312347 157.597626,326.470215 168.084335,305.693848 
M433.483856,318.640656 
	C432.497650,325.494507 428.672089,331.431000 427.092255,338.303864 
	C431.243988,334.747559 438.680878,336.520752 441.035278,329.156982 
	C434.970245,331.762024 434.709198,328.224854 434.697021,324.493073 
	C434.680206,319.327454 434.514587,314.151337 434.771698,308.997620 
	C436.206024,280.249146 449.316254,258.713776 474.622437,244.701431 
	C478.245453,242.695312 480.158234,243.561691 481.180817,247.385590 
	C482.527466,252.421326 483.107971,257.572418 483.577484,262.807739 
	C485.127289,256.602295 486.972809,250.577179 489.679810,244.852905 
	C497.693695,227.906616 510.129791,215.440872 527.425232,208.047913 
	C532.044006,206.073608 533.271729,206.927872 534.106995,211.896225 
	C534.748657,215.713135 535.540527,219.523514 535.080444,223.518967 
	C538.927246,213.651199 543.845764,204.505417 550.433044,196.206451 
	C474.515594,163.390137 350.570282,166.960785 260.220001,254.282761 
	C166.623947,344.741699 157.597260,481.075745 204.736008,572.775879 
	C205.485031,570.621399 206.196396,568.779053 206.769012,566.894470 
	C210.090866,555.961731 215.172089,545.918640 221.651581,536.514099 
	C223.908997,533.237610 225.839508,532.574829 228.598541,535.782959 
	C230.629425,538.144470 232.850555,540.342224 235.590927,543.254944 
	C235.159500,539.688843 233.898163,537.131104 233.847412,534.315674 
	C233.456863,512.651550 242.398010,494.678223 255.687119,478.366943 
	C257.488037,476.156433 259.093018,475.995026 260.927216,478.230804 
	C263.376953,481.216827 265.870209,484.167175 268.925598,487.828918 
	C268.584503,483.433197 267.911285,479.938141 268.112091,476.494080 
	C269.306610,456.006622 278.868774,439.419159 292.578888,424.806488 
	C294.910309,422.321625 296.862549,422.641388 298.627014,425.261292 
	C300.999664,428.784180 303.261841,432.381500 305.856781,436.387390 
	C305.725250,428.880096 305.731659,421.949310 307.561920,415.070099 
	C311.820221,399.064941 320.899078,386.215912 332.780487,375.067047 
	C335.701233,372.326416 337.822571,372.818146 339.904114,376.174347 
	C342.481232,380.329590 344.397858,384.767700 346.060181,389.349274 
	C346.173889,386.943878 345.785370,384.617554 346.009521,382.351807 
	C348.278687,359.412109 359.614441,341.722260 377.602325,327.837860 
	C380.367371,325.703552 381.905609,326.182312 383.432770,329.032532 
	C385.853699,333.550690 387.708435,338.270203 388.711945,343.468323 
	C390.107208,342.420776 389.640717,341.156799 389.741364,340.088074 
	C392.015289,315.942322 404.387878,298.151825 424.204559,284.950012 
	C427.833496,282.532440 429.562103,283.407715 431.262543,287.278473 
	C435.634613,297.230682 434.254913,307.516418 433.483856,318.640656 
M586.320862,270.818909 
	C597.798218,258.685669 610.965820,248.309601 622.905701,236.754593 
	C617.410339,232.509903 612.950500,232.321152 607.687622,236.432144 
	C601.495605,241.268921 593.879578,243.796982 586.345886,245.954712 
	C582.223633,247.135361 579.330200,248.867691 577.564941,253.059402 
	C575.697632,257.493378 572.538269,261.234711 569.193787,264.797485 
	C560.029297,274.560272 548.678467,280.509796 536.123596,284.584351 
	C533.769287,285.348389 530.935730,285.422821 529.856445,288.741486 
	C524.324707,305.751160 511.996002,316.377106 496.365173,323.797821 
	C490.673462,326.500031 484.616730,328.243011 477.958191,330.271271 
	C482.273102,332.486176 481.556946,335.305847 480.264496,338.221954 
	C473.778992,352.855164 463.200165,363.469757 448.743500,370.254700 
	C441.887207,373.472534 434.689453,375.771729 426.018890,378.016663 
	C428.031219,378.422760 428.621643,378.582123 429.222595,378.657104 
	C436.941223,379.619751 437.503967,380.523224 434.473419,387.808136 
	C430.420532,397.550690 424.152893,405.663391 415.876404,412.166809 
	C405.650513,420.202057 393.600555,424.256012 380.655151,427.609924 
	C383.925873,427.842834 386.610718,427.810364 389.211121,428.263000 
	C395.837463,429.416382 396.557404,430.596466 394.080872,436.947388 
	C388.339508,451.670898 378.370819,462.692596 364.382507,470.044006 
	C358.530975,473.119263 352.388336,475.498627 345.980774,477.599121 
	C350.284821,478.141327 354.579834,477.729767 358.766357,478.228729 
	C366.980682,479.207703 367.589996,480.504303 364.528534,488.074097 
	C357.541870,505.349365 345.411469,517.482727 328.121765,524.442444 
	C325.209778,525.614624 322.275055,526.730164 318.305054,528.280273 
	C323.011261,528.506836 326.478119,528.665466 329.944031,528.842285 
	C337.179230,529.211365 338.019775,530.478333 335.566956,537.461060 
	C329.460938,554.843689 318.244415,567.595032 301.315826,575.143433 
	C286.650177,581.682678 271.431122,584.007202 255.528519,581.147949 
	C252.103180,580.532043 250.092728,578.974426 250.739532,575.063110 
	C251.137329,572.657532 249.955612,570.846191 247.420776,568.939148 
	C249.027832,578.774048 248.194489,587.789978 246.755356,597.389404 
	C265.116058,582.167603 286.095367,579.786011 308.029510,581.498352 
	C315.289398,582.065063 315.891083,583.245056 313.355713,590.383545 
	C304.687500,614.789551 287.358215,629.161438 262.173645,634.462769 
	C256.111816,635.738708 250.000870,636.409973 242.553299,635.829468 
	C252.418533,647.057922 261.274597,657.070557 271.508057,665.581787 
	C281.778198,674.123474 289.020416,684.644592 294.801819,696.414856 
	C296.513489,699.899658 297.107025,703.617859 297.368042,707.490784 
	C298.081421,718.075439 295.561157,727.933350 291.393158,737.541382 
	C289.517761,741.864380 290.896606,743.880127 295.593018,743.913513 
	C298.745361,743.935913 301.938477,743.717651 305.049133,743.211975 
	C324.572876,740.038452 344.222260,740.079773 363.868347,741.119751 
	C382.317291,742.096313 400.735413,743.675415 419.220459,743.920288 
	C423.215881,743.973206 427.216309,743.841675 431.155884,742.977478 
	C437.616455,741.560364 442.448456,738.279114 444.572296,731.685852 
	C446.062714,727.058899 446.713776,722.337280 446.877991,717.483887 
	C447.581116,696.703918 442.685669,676.914001 436.549347,657.309143 
	C433.081299,646.229004 428.632263,635.398987 427.575073,623.670959 
	C427.446136,622.240601 426.802948,621.073181 425.467743,620.506470 
	C421.700195,618.907349 417.899597,617.386292 413.868683,615.734741 
	C412.591400,618.613586 413.029999,621.444702 413.055054,624.211121 
	C413.211456,641.492432 418.917511,657.879150 421.230774,674.812012 
	C422.444183,683.693848 424.481110,692.542908 424.150879,701.529480 
	C423.801514,711.037476 421.498962,719.912354 411.085297,723.569519 
	C405.553101,725.512390 399.801971,726.326294 393.882538,725.957642 
	C369.582794,724.444641 345.283905,723.041626 321.713379,731.366211 
	C318.022003,732.669983 314.360687,732.656372 313.247833,728.146790 
	C312.198364,723.894043 315.936188,722.071106 318.997406,721.230652 
	C335.554077,716.685547 352.250183,712.918457 369.597565,712.898560 
	C380.244659,712.886353 390.913788,713.370117 401.539764,711.868408 
	C409.146637,710.793335 413.627472,705.609802 413.340393,697.972412 
	C412.674072,680.247864 407.925873,663.232361 404.631561,645.956116 
	C402.640289,635.513367 401.019287,624.959534 402.548248,614.266846 
	C403.648712,606.570984 403.626343,599.302917 398.902130,592.411194 
	C395.677612,587.707214 395.123291,587.029785 390.786469,590.966248 
	C376.843170,603.622437 360.925934,613.243286 344.221954,621.689026 
	C340.636139,623.502014 336.884949,624.897888 332.906128,625.527588 
	C330.145416,625.964478 327.354950,626.168884 325.053894,624.102051 
	C325.575836,621.243042 327.908600,620.682312 329.696930,619.653320 
	C345.778656,610.400330 360.860382,599.749512 374.783844,587.481873 
	C378.282623,584.399231 381.692841,581.209473 385.026611,577.949158 
	C386.462280,576.545105 387.039520,574.795654 385.147278,573.195740 
	C383.443115,571.754822 382.064972,572.602173 380.849213,573.972168 
	C379.190887,575.841003 377.584259,577.755798 375.921295,579.620422 
	C371.774048,584.270447 367.210205,588.331421 361.126465,590.340393 
	C359.351624,590.926514 357.883118,590.940735 356.711792,589.291626 
	C355.453033,587.519409 356.363159,586.139526 357.548920,584.861328 
	C358.681366,583.640503 359.876465,582.476135 361.072357,581.316223 
	C366.108826,576.431396 370.747375,571.209473 374.672424,565.376465 
	C376.563843,562.565491 376.764771,559.949158 375.479523,556.523010 
	C369.598022,540.844482 368.169434,524.866760 373.764038,508.717438 
	C379.864136,491.108917 391.432220,478.952118 410.566193,478.538818 
	C418.865997,478.359589 421.127533,474.075073 424.410828,469.139313 
	C444.530426,438.893829 464.646240,408.635529 487.386963,380.262146 
	C518.043457,342.012329 550.193665,305.089203 586.320862,270.818909 
M444.091370,795.963257 
	C435.053162,796.282471 430.755524,800.917358 430.906647,810.001465 
	C430.941223,812.080078 429.798279,814.156921 429.368744,816.269470 
	C428.677002,819.671265 429.263428,821.705994 433.641815,821.159485 
	C439.909088,820.377319 446.240692,820.019775 452.556305,819.735046 
	C463.867004,819.225098 475.251862,819.540405 486.489136,818.380859 
	C515.388184,815.398865 543.987183,816.145813 572.303955,823.080322 
	C576.488953,824.105164 577.507751,822.998047 576.093689,818.723511 
	C574.528320,813.991638 572.466309,809.425598 570.855591,804.707031 
	C566.962769,793.302307 564.407166,781.614014 565.096985,769.493103 
	C566.010376,753.442871 570.347839,738.059021 574.966919,722.774597 
	C576.049500,719.192566 575.528137,717.277954 571.664246,716.063782 
	C549.218933,709.010437 528.543335,698.148438 509.509369,684.575806 
	C486.263397,667.999756 465.910767,647.993225 445.960297,627.628357 
	C444.531006,626.169434 443.564667,623.946472 440.627869,623.817078 
	C439.461212,626.892456 439.998474,629.931885 440.659851,632.993408 
	C445.394165,654.909973 453.713837,675.898621 457.181976,698.169312 
	C458.940277,709.460022 460.877563,720.689697 456.503235,731.614746 
	C453.530518,739.039429 452.969055,745.759583 457.704376,752.586426 
	C458.892731,754.299622 459.326202,756.582458 459.915955,758.657654 
	C464.564301,775.013977 459.248413,787.982117 444.091370,795.963257 
M451.243958,443.714478 
	C443.340057,455.263214 436.162872,467.262085 428.982147,479.266602 
	C426.420776,483.548584 427.130554,486.298553 431.386353,488.580811 
	C433.708923,489.826324 435.863251,491.214447 437.485870,493.544250 
	C440.485992,497.851990 441.856293,497.754486 445.633026,493.794189 
	C451.323425,487.827209 455.238312,480.624573 459.537994,473.703186 
	C476.423615,446.521942 494.458008,420.159271 515.151978,395.703094 
	C526.016113,382.863800 536.960022,370.114197 550.392029,359.737549 
	C567.254944,346.710449 585.774963,336.676605 605.275146,328.293243 
	C627.808411,318.605896 650.880920,310.692291 675.104675,306.350861 
	C680.286621,305.422119 685.788330,305.176300 690.243835,301.747253 
	C694.543640,298.437988 694.484924,294.739685 690.020386,291.781464 
	C688.327148,290.659515 686.732300,289.474335 685.645569,287.760773 
	C678.018799,275.734894 667.709290,265.929749 658.534973,255.194565 
	C655.702637,251.880341 655.291565,249.791595 659.038330,247.230728 
	C663.605591,244.109070 665.960388,239.808334 665.738708,234.087494 
	C665.582275,230.051743 662.794556,228.255737 659.901917,226.670624 
	C657.309753,225.250214 655.207642,226.787354 653.217407,228.552444 
	C651.356689,230.202621 649.285400,231.625900 647.245178,233.061371 
	C626.905212,247.371826 608.009216,263.414520 590.119934,280.662903 
	C569.849304,300.207397 550.579285,320.675537 531.866882,341.737885 
	C503.181915,374.025238 476.192719,407.587677 451.243958,443.714478 
M148.141098,440.503632 
	C147.926819,456.647705 147.400208,472.860291 149.570160,488.865356 
	C152.266220,508.750824 156.349823,528.380249 162.726761,547.522705 
	C174.228256,582.048157 191.525574,613.289062 214.501892,641.442871 
	C215.223175,642.326660 215.882996,643.378479 217.853867,643.054016 
	C219.661026,640.333069 221.661636,637.289856 223.696686,634.269897 
	C224.697769,632.784302 224.521057,631.442505 223.284683,630.233337 
	C213.922836,621.077759 208.999329,609.010010 202.344040,598.100769 
	C186.169724,571.588440 174.852570,543.094116 168.725967,512.616821 
	C166.007126,499.091827 164.336090,485.458649 163.385849,471.640106 
	C161.592209,445.556915 163.036072,419.749481 168.154526,394.211853 
	C173.777924,366.154907 183.389984,339.430603 197.184326,314.283264 
	C228.686020,256.855103 274.202423,214.463348 333.837280,187.388214 
	C362.728912,174.270966 393.059723,166.325989 424.711609,163.625381 
	C445.343140,161.865067 466.013702,161.824936 486.536041,164.432922 
	C511.544373,167.610947 535.919861,173.617294 559.246704,183.443207 
	C560.428162,183.940857 561.743286,184.964691 563.032471,184.208817 
	C567.550476,181.559799 571.978699,178.757599 576.535217,175.955627 
	C574.880188,173.636246 572.720642,173.121811 570.769775,172.300049 
	C540.193115,159.419922 508.500885,151.322189 475.302795,148.870728 
	C452.944275,147.219696 430.670807,147.700409 408.561554,150.688019 
	C386.621796,153.652740 365.225006,159.306396 344.439423,167.150604 
	C303.295105,182.677933 267.224976,206.096359 236.147751,237.086945 
	C210.917130,262.247192 190.772171,291.078857 175.838394,323.495880 
	C158.872360,360.324432 149.103638,398.860474 148.141098,440.503632 
M523.693909,466.178558 
	C522.329773,467.399445 521.021179,468.690033 519.592163,469.829529 
	C511.671204,476.145752 503.270264,481.877167 498.530182,491.438019 
	C496.959045,494.607025 493.483826,496.486206 489.585449,497.576874 
	C487.726044,492.582123 488.989227,488.274323 491.008392,484.004395 
	C494.766968,476.056061 501.441162,470.770447 507.838654,465.162048 
	C517.120544,457.024963 520.711975,446.052124 517.335266,437.160431 
	C515.190308,431.512238 511.838684,430.446106 507.239105,434.234497 
	C496.209564,443.318939 487.607361,454.628510 479.626038,466.271667 
	C475.776459,471.887512 473.844757,478.524323 475.017273,486.103882 
	C476.980865,498.797577 477.491180,511.643219 468.985840,522.776489 
	C470.095337,523.944092 471.235016,523.040039 472.307159,522.987549 
	C477.941833,522.711914 486.867035,527.249695 488.048767,531.674316 
	C488.881012,534.790405 490.622284,536.063599 493.377472,536.799561 
	C496.429474,537.614929 499.429138,538.628967 502.487335,539.417786 
	C509.561279,541.242310 512.540955,539.993408 515.662720,533.398499 
	C519.275513,525.766052 519.192566,517.554382 518.357605,509.423096 
	C517.929504,505.254333 518.974426,501.975647 521.551880,498.843079 
	C526.523926,492.800385 531.128662,486.442047 536.296082,480.576111 
	C548.434021,466.797424 546.575195,451.418793 539.400085,436.851349 
	C537.919067,433.844421 535.533813,433.160889 532.303467,434.631042 
	C527.675537,436.737183 529.311646,440.445831 529.841980,443.675934 
	C531.191467,451.895233 531.244080,459.662933 523.693909,466.178558 
M388.059906,754.356750 
	C381.267334,753.844849 374.523895,752.777039 367.645111,753.865845 
	C364.377197,754.383057 362.475647,755.838135 361.538635,758.826782 
	C355.123932,779.287048 357.263245,798.561890 369.485107,816.465088 
	C371.480591,819.388123 374.037415,821.385010 377.605499,821.644104 
	C385.388184,822.209473 393.212372,823.669922 400.970032,821.820801 
	C410.666016,819.509644 417.636719,813.773010 421.152374,804.311462 
	C422.742279,800.032532 421.980804,796.881836 417.038025,794.835693 
	C407.765656,790.997192 400.708649,784.388611 397.043335,774.927307 
	C395.082520,769.865845 393.925140,764.430054 392.987793,759.061462 
	C392.507721,756.311646 391.696808,754.722778 388.059906,754.356750 
M230.723251,617.171143 
	C247.313110,592.786621 242.564011,557.330872 225.612000,544.764954 
	C206.010300,572.423523 205.911240,602.018005 226.885315,621.880371 
	C228.630859,621.010559 229.213501,619.155151 230.723251,617.171143 
M240.960556,618.455688 
	C237.363556,625.986084 237.573349,627.318481 243.065231,627.750732 
	C265.761230,629.537170 291.935547,620.518738 303.946808,594.623291 
	C304.638031,593.133118 305.435120,591.644226 305.028503,589.903931 
	C285.415466,586.143555 253.757339,591.255737 240.960556,618.455688 
M273.510162,552.009399 
	C268.516693,556.795654 264.781525,562.484802 261.717438,568.630493 
	C259.543304,572.991150 260.243561,574.440674 265.091431,574.593323 
	C283.974548,575.187988 301.052856,570.216858 315.014343,557.015564 
	C320.780426,551.563477 325.538116,545.197754 327.613678,536.466675 
	C307.542236,535.474854 289.078003,537.294678 273.510162,552.009399 
M251.453918,560.760498 
	C254.901825,564.380737 256.104736,560.346680 257.294128,558.673157 
	C268.568298,542.809326 272.707184,525.235046 268.499725,506.141266 
	C266.980072,499.244904 264.044159,492.696289 258.734253,487.486328 
	C242.432907,505.795441 233.119598,534.642639 251.453918,560.760498 
M518.706421,411.874725 
	C523.202271,419.509918 538.757385,417.958679 542.763062,408.285278 
	C545.011353,402.855957 547.761780,398.784424 554.707581,399.463623 
	C557.793640,399.765381 560.817261,397.992035 563.458618,396.182098 
	C571.537231,390.646454 577.506104,383.368744 580.233826,373.925354 
	C581.599976,369.196045 584.198547,364.356293 581.664368,358.525055 
	C576.317139,361.248749 571.117310,363.681885 566.122131,366.480377 
	C548.306519,376.461548 533.779785,390.244385 520.982056,405.979309 
	C519.735535,407.511902 518.268555,408.972260 518.706421,411.874725 
M326.493408,517.003784 
	C340.367462,510.936188 351.068024,501.722412 356.835815,487.264038 
	C334.618195,478.138367 293.263977,499.880310 289.801453,522.366211 
	C302.326569,524.127808 314.212646,521.917786 326.493408,517.003784 
M292.543915,497.032501 
	C308.642426,472.720459 305.264038,443.705566 294.555115,433.940277 
	C272.152344,458.422791 269.912262,486.632324 284.560944,506.845703 
	C287.683746,504.252075 289.891541,500.927643 292.543915,497.032501 
M343.301727,469.765289 
	C362.127594,465.095276 377.435913,455.902435 385.982086,437.456421 
	C366.290924,427.858917 324.058929,449.444061 318.908020,471.555878 
	C326.941284,472.571442 334.738068,471.838440 343.301727,469.765289 
M324.037994,766.039246 
	C322.559326,779.203674 322.770386,792.276489 326.286896,805.147705 
	C328.812653,814.392639 337.288666,821.051697 345.981903,820.712585 
	C351.109436,820.512634 352.699066,817.902710 350.140564,813.650452 
	C344.635162,804.500549 343.061768,794.293640 343.095276,783.981873 
	C343.117157,777.241760 345.228943,770.535889 345.813263,763.763672 
	C346.690643,753.594421 346.284576,753.406128 335.961761,754.717285 
	C326.231750,755.953125 326.231750,755.953125 324.037994,766.039246 
M339.713623,419.194092 
	C342.537445,406.901306 341.933716,395.063324 335.535889,383.779327 
	C315.656158,395.230591 305.815155,437.994598 319.207642,454.128174 
	C329.715363,444.928925 335.593689,433.049622 339.713623,419.194092 
M412.306824,385.979797 
	C388.159821,387.361633 371.210663,399.778076 359.034149,420.257507 
	C384.310455,425.166718 424.108032,404.975800 425.942657,386.529480 
	C421.748657,385.339142 417.492371,385.229126 412.306824,385.979797 
M471.411438,339.311279 
	C470.395416,336.407532 467.837555,337.332581 465.877014,337.287231 
	C440.517120,336.700806 420.886505,347.365448 406.362213,367.879425 
	C405.670013,368.857056 404.389832,369.849548 405.561981,371.703888 
	C414.103394,372.169434 422.645630,370.900665 430.998749,368.659271 
	C447.933044,364.115204 462.539032,356.122925 471.411438,339.311279 
M359.859253,359.357819 
	C351.933868,374.127014 352.494598,389.509583 356.040558,405.371368 
	C375.563538,396.681091 390.568390,349.843689 378.189087,336.967377 
	C370.646912,342.932343 364.745239,350.243988 359.859253,359.357819 
M427.645508,311.957306 
	C427.463165,305.823456 428.816223,299.442902 425.075378,293.716248 
	C401.215454,309.598755 393.093842,335.070801 398.164825,360.352509 
	C413.472748,347.561859 423.610474,332.144653 427.645508,311.957306 
M509.887909,306.395264 
	C513.981323,302.530304 517.679077,298.377594 520.001160,293.072113 
	C498.401001,286.782135 458.892303,306.057617 453.190033,325.853302 
	C473.784241,324.535309 493.147583,320.476318 509.887909,306.395264 
M474.089111,275.515625 
	C476.057800,268.425385 476.477173,261.288544 475.294006,253.934311 
	C456.494690,259.047882 437.613983,295.542236 442.059875,318.385590 
	C456.638000,306.964874 467.861115,293.654327 474.089111,275.515625 
M500.349701,239.861328 
	C492.900208,251.731445 489.946198,264.914001 488.296143,279.005066 
	C510.307953,269.262390 532.104431,233.089462 525.970276,217.356445 
	C517.619934,220.604660 507.485809,229.402649 500.349701,239.861328 
M561.539551,262.046509 
	C564.789001,258.667084 568.457275,255.581009 569.790222,251.564148 
	C541.132080,247.817490 519.744385,259.630432 502.459900,282.811340 
	C524.490662,281.009766 544.573853,277.101349 561.539551,262.046509 
M543.926880,221.445862 
	C541.651489,228.546555 538.542542,235.445984 537.937866,244.179108 
	C555.744751,231.920181 570.709778,218.785477 578.253357,199.087311 
	C580.044434,194.410355 581.900024,189.540329 580.161682,183.544281 
	C562.896118,191.338470 551.105225,203.618057 543.926880,221.445862 
M619.933472,215.739746 
	C622.343750,212.115021 619.457092,212.361816 617.315613,212.265793 
	C602.963440,211.622269 589.570984,214.871902 577.459656,222.668198 
	C569.535645,227.768936 562.588318,234.048218 555.418823,241.945053 
	C581.479675,242.630234 602.991821,235.632477 619.933472,215.739746 
M434.955475,785.765686 
	C441.348785,785.035278 444.621582,780.677734 446.157806,775.142822 
	C447.785461,769.278564 447.095215,763.234741 445.200195,757.471375 
	C444.348328,754.880615 442.509338,753.832031 439.775513,755.707153 
	C434.824860,759.102783 429.265900,759.429138 423.485504,758.745117 
	C420.524475,758.394714 417.500824,758.596313 414.529724,758.302856 
	C409.655487,757.821472 408.730988,760.581360 409.436523,764.452942 
	C411.927460,778.121826 423.094788,787.343750 434.955475,785.765686 
M306.455200,802.807983 
	C310.615784,803.139893 312.600555,801.869751 310.712158,797.364136 
	C310.148865,796.019958 310.012756,794.462463 309.864044,792.984314 
	C308.895630,783.358643 309.462158,773.793213 311.197113,764.294189 
	C311.810516,760.935791 312.220459,757.249390 307.489899,757.531067 
	C301.681335,757.876953 296.292755,760.416199 290.948914,762.664246 
	C289.696381,763.191223 289.395935,764.758423 289.330505,766.131409 
	C288.894165,775.285950 288.782867,784.417847 292.461395,793.080200 
	C294.919922,798.869629 298.929993,802.677673 306.455200,802.807983 
M604.174072,340.726746 
	C600.231323,341.855774 598.723877,344.354553 598.914917,348.528717 
	C599.040649,351.273956 598.024414,354.070190 597.529907,356.845428 
	C596.623047,361.935059 597.764404,363.356720 602.892639,362.866760 
	C612.845581,361.915802 621.695496,358.500824 628.048828,350.350739 
	C631.544312,345.866760 634.455261,341.009155 634.874268,335.114441 
	C635.117188,331.696472 633.428040,330.277161 630.291138,331.657318 
	C622.051819,335.282379 613.008667,336.526917 604.174072,340.726746 
M673.865173,332.404846 
	C676.414185,330.107239 679.209778,327.963196 679.424255,324.099670 
	C678.710632,323.703888 678.268860,323.236664 677.866028,323.268158 
	C669.389832,323.929779 661.164124,326.112946 652.982300,328.139740 
	C648.951721,329.138184 649.642761,334.137543 649.907593,337.316437 
	C650.179016,340.573273 653.548035,339.094604 655.713623,339.136749 
	C662.368164,339.266235 667.949402,336.381622 673.865173,332.404846 
M458.698364,519.195862 
	C464.549683,510.955841 467.186768,501.986206 464.988800,491.764801 
	C459.289886,496.894196 455.557678,503.246735 452.022858,509.733673 
	C450.784454,512.006287 450.472961,514.448181 450.977692,517.002258 
	C451.350342,518.887817 450.521362,521.407715 452.781830,522.354431 
	C455.232758,523.380920 456.674286,521.188904 458.698364,519.195862 
M265.235870,761.660645 
	C263.085693,764.593994 263.206421,767.819275 265.315247,770.393799 
	C267.287140,772.801147 270.395416,774.973999 273.489532,774.308350 
	C276.737091,773.609802 275.559845,769.554993 276.693573,767.127808 
	C276.893555,766.699707 276.833099,766.150146 276.894135,765.656860 
	C277.196350,763.214600 280.266449,760.728394 277.469360,758.378906 
	C274.513000,755.895630 271.499512,758.215698 268.640778,759.278748 
	C267.585358,759.671204 266.695068,760.507629 265.235870,761.660645 
M279.707794,514.687500 
	C278.843140,513.351196 277.978485,512.014832 276.450745,509.653748 
	C279.218994,520.732910 276.232697,530.217163 274.655273,540.796875 
	C281.135406,536.537842 287.406250,533.732239 294.794128,531.426941 
	C292.371368,531.050598 290.799744,530.819519 289.232910,530.559509 
	C287.600555,530.288452 285.950348,530.080872 284.347198,529.686096 
	C279.251160,528.431030 278.560333,527.256714 280.665558,522.393860 
	C281.809265,519.752014 282.429260,517.453552 279.707794,514.687500 
M357.813293,429.929016 
	C358.366638,429.726288 359.147369,429.908569 359.384430,428.703033 
	C356.784546,428.465515 354.174927,428.418427 351.645721,427.943329 
	C349.017334,427.449585 347.535828,426.195740 348.866302,423.026978 
	C352.146912,415.213287 352.012512,414.175629 348.213745,406.134583 
	C349.135864,416.357788 345.136688,425.376587 342.202545,435.128174 
	C347.768829,433.253448 352.467957,431.670776 357.813293,429.929016 
M384.398682,385.108276 
	C388.789032,383.427582 393.179382,381.746918 398.066498,379.876038 
	C395.736237,378.625793 392.305511,378.889954 393.071991,375.921234 
	C394.345062,370.990509 390.331665,367.954224 389.735382,363.712860 
	C388.210358,369.975647 386.123138,375.863861 383.635406,381.640045 
	C383.226318,382.589905 381.329315,384.206848 384.398682,385.108276 
M313.714539,485.060303 
	C318.134369,483.012085 322.709656,481.363342 327.392303,479.930328 
	C325.029663,479.652557 322.730774,479.849121 320.475281,479.619354 
	C309.162903,478.467041 309.164124,478.426819 305.045349,488.897705 
	C304.960144,489.114258 305.163391,489.444305 305.230927,489.712708 
	C307.835083,488.273682 310.439240,486.834656 313.714539,485.060303 
M480.869263,277.308960 
	C479.537781,282.694977 476.766327,287.539520 474.468628,293.262817 
	C477.747498,292.092682 480.513184,291.578156 480.716797,287.893280 
	C480.925018,284.124207 481.335388,280.366547 481.626892,276.601532 
	C481.666992,276.083252 481.425415,275.986450 481.192474,276.352631 
	C481.106812,276.487305 481.078735,276.658630 480.869263,277.308960 
M689.669189,322.657013 
	C689.095581,323.732208 689.039795,324.877808 689.359863,326.013184 
	C689.689636,327.182556 690.321655,328.241364 691.733948,328.020416 
	C693.059998,327.813049 693.743530,326.705139 693.576843,325.486603 
	C693.316772,323.584900 693.159790,321.280731 689.669189,322.657013 
M311.276031,459.368195 
	C311.276031,461.677795 311.276031,463.987396 311.276031,467.275818 
	C314.222687,463.659698 313.933533,461.218567 311.276031,459.368195 
z"/>
<path fill="#000000" opacity="1.000000" stroke="none" 
	d="
M596.393799,447.247253 
	C607.850464,444.777802 616.753296,438.312500 625.638916,431.836304 
	C633.042664,426.440247 640.445496,421.083740 649.312805,418.206726 
	C651.550720,417.480591 653.755615,416.778229 656.111389,416.822388 
	C660.916016,416.912506 663.692566,414.867615 663.828247,409.817139 
	C663.855225,408.810455 664.171692,407.837982 665.662476,407.198761 
	C670.163208,409.059570 669.951050,413.587646 670.668152,417.460968 
	C671.194580,420.303802 669.148132,421.606598 666.742249,422.388916 
	C664.323486,423.175446 663.825317,425.008331 664.430420,427.163788 
	C666.024536,432.842133 664.882019,438.398590 663.764587,443.936218 
	C663.256653,446.452972 663.019348,448.824341 664.158203,451.233398 
	C665.708618,454.513214 664.054993,455.632324 660.970337,456.184235 
	C648.701111,458.379211 636.475159,457.146545 624.246643,455.929260 
	C615.321289,455.040771 606.404541,454.064056 597.488953,453.081451 
	C595.696228,452.883850 593.552551,452.851624 593.036987,450.628601 
	C592.524536,448.418610 594.445923,447.944305 596.393799,447.247253 
M620.925110,444.149719 
	C618.613892,448.264343 622.323547,447.511353 623.997314,447.526001 
	C631.942383,447.595337 639.878784,446.387207 647.835327,447.243683 
	C656.654663,448.193054 656.728760,448.155731 656.901794,439.222900 
	C657.113647,428.291199 655.974976,427.539215 645.786987,431.277740 
	C637.161804,434.442810 629.733154,439.871643 620.925110,444.149719 
z"/>
<path fill="#000000" opacity="1.000000" stroke="none" 
	d="
M394.232025,522.293579 
	C394.190582,530.375366 393.180389,538.086548 397.148163,545.221191 
	C399.627045,549.678467 402.617737,553.485901 407.196350,556.010437 
	C413.729126,559.612305 419.372498,563.996460 421.608643,571.746094 
	C422.658630,575.384949 425.198151,575.894043 427.909821,572.839417 
	C428.900787,571.723145 429.902863,570.313354 431.649628,571.386414 
	C433.249878,572.369385 433.594086,574.021057 433.303131,575.779602 
	C432.750610,579.119385 431.253876,581.964294 427.798218,582.819214 
	C424.410645,583.657349 421.668793,582.079102 419.511444,579.412842 
	C417.970093,577.507874 417.542023,575.156006 417.099335,572.917908 
	C416.309570,568.924866 414.118896,566.725220 410.373260,565.058167 
	C396.751923,558.995850 390.074799,547.879089 388.816132,533.370667 
	C387.833374,522.042664 389.040802,511.119141 395.982391,501.480408 
	C400.580566,495.095734 407.371979,492.380310 414.077423,493.659821 
	C423.500122,495.457886 426.365234,505.458649 425.687531,515.200928 
	C425.308533,520.649597 424.086060,526.036682 423.319214,531.462219 
	C422.845612,534.812866 423.483612,537.650696 426.771729,539.563660 
	C428.794464,540.740417 430.002380,542.755432 428.321594,545.021301 
	C426.770996,547.111694 424.446930,546.955933 422.461273,545.770203 
	C418.988739,543.696533 416.882050,540.651428 416.680817,536.432373 
	C416.447449,531.539124 417.511383,526.852356 418.725403,522.180359 
	C420.007019,517.248169 420.231354,512.278625 418.837677,507.368134 
	C417.663361,503.230560 414.826172,500.436768 410.683167,499.319550 
	C406.542328,498.202881 403.659607,500.565002 401.217194,503.496033 
	C396.801666,508.794922 394.751007,515.024719 394.232025,522.293579 
z"/>
<path fill="#000000" opacity="1.000000" stroke="none" 
	d="
M663.898682,386.776062 
	C669.073547,388.305481 672.180237,391.623779 674.303833,395.983368 
	C675.263672,397.953796 675.374573,399.999268 673.356628,401.320740 
	C671.454529,402.566254 670.059631,400.928314 669.223267,399.648529 
	C664.746338,392.798340 658.529541,393.389313 651.944763,395.348419 
	C641.688232,398.399902 633.382263,404.881165 624.751160,410.809143 
	C619.681824,414.290833 614.505371,417.618866 609.327942,420.939240 
	C607.794861,421.922424 606.123535,422.772278 604.180847,422.520233 
	C603.018738,422.369507 601.801086,422.186493 601.301392,420.904755 
	C600.748535,419.486511 601.699951,418.560638 602.743103,418.106750 
	C618.332275,411.323608 629.562744,397.836090 644.899597,390.709839 
	C650.757446,387.988007 656.710266,385.261017 663.898682,386.776062 
z"/>
<path fill="#000000" opacity="1.000000" stroke="none" 
	d="
M684.087891,508.693146 
	C682.954956,514.323364 681.730652,519.502563 680.918701,524.745667 
	C680.459778,527.709229 680.544556,530.955200 683.496704,532.827637 
	C686.320862,534.618896 689.296936,533.804688 692.056396,532.362610 
	C700.451172,527.975525 708.260437,522.412292 717.487854,519.704285 
	C719.605530,519.082825 722.315063,517.152588 723.612549,520.162109 
	C724.912354,523.177124 722.503845,525.053467 719.880920,526.212585 
	C709.375305,530.855103 698.834839,535.411621 688.633484,540.721313 
	C684.875122,542.677490 680.321167,540.917664 677.937683,536.993469 
	C674.648376,531.577698 674.039917,525.669373 675.492554,519.669739 
	C676.511719,515.460388 677.351135,511.260895 677.825378,506.963837 
	C677.967468,505.675903 678.391296,504.357178 678.974060,503.197266 
	C679.552124,502.046722 680.326172,500.669250 681.915955,500.914764 
	C683.704468,501.190979 684.201294,502.697540 684.267883,504.279968 
	C684.323730,505.605896 684.208496,506.938965 684.087891,508.693146 
z"/>
<path fill="#000000" opacity="1.000000" stroke="none" 
	d="
M188.978836,645.007324 
	C190.080429,648.394592 188.922958,651.286926 188.245346,654.157898 
	C184.846405,668.558716 181.342041,682.934814 177.796555,697.300354 
	C177.498978,698.505981 177.433670,700.015625 175.986664,700.681885 
	C170.009903,698.052856 168.437714,694.309082 169.991669,688.204773 
	C173.969223,672.580139 177.710464,656.895203 181.545044,641.234131 
	C181.775772,640.291870 181.693344,639.199768 183.186676,638.486938 
	C186.127335,639.346191 186.948166,642.541382 188.978836,645.007324 
z"/>
<path fill="#000000" opacity="1.000000" stroke="none" 
	d="
M94.000824,428.118042 
	C90.483223,429.331573 87.353004,430.460724 84.196999,431.512482 
	C82.149055,432.194946 79.895485,434.294525 78.144073,431.168060 
	C76.618416,428.444550 77.981972,423.096161 80.584427,421.913513 
	C83.147316,420.748901 85.888344,419.975464 88.553413,419.036682 
	C100.157921,414.948792 111.750610,410.826782 123.374924,406.795959 
	C127.543121,405.350647 127.842072,406.081818 127.684326,410.672394 
	C127.515732,415.578308 125.124123,417.499847 120.755249,418.851624 
	C111.869644,421.600952 103.159637,424.917816 94.000824,428.118042 
z"/>
<path fill="#000000" opacity="1.000000" stroke="none" 
	d="
M152.841293,609.757935 
	C146.598160,621.640015 140.534866,633.196167 134.378906,644.928894 
	C128.214432,639.625000 127.654518,636.735535 130.847137,630.648682 
	C137.498642,617.967285 144.092010,605.255310 150.763153,592.584351 
	C151.578674,591.035400 152.087967,589.136536 154.026993,588.445923 
	C159.134232,593.873901 159.635223,596.925781 156.478958,602.781067 
	C155.293503,604.980286 154.171844,607.213989 152.841293,609.757935 
z"/>
<path fill="#000000" opacity="1.000000" stroke="none" 
	d="
M84.513641,492.646393 
	C96.118988,485.064514 107.360619,477.612701 118.725578,470.353973 
	C120.649269,469.125305 122.849426,465.275848 125.256851,468.553711 
	C127.148735,471.129700 126.885582,474.923676 124.778053,477.938568 
	C124.319534,478.594513 123.562912,479.076416 122.872795,479.531006 
	C110.080315,487.957764 97.280350,496.373230 84.464333,504.764130 
	C83.944824,505.104248 83.251945,505.179596 82.690414,505.361908 
	C79.364525,500.473083 79.897148,496.387268 84.513641,492.646393 
z"/>
<path fill="#000000" opacity="1.000000" stroke="none" 
	d="
M94.790634,350.485352 
	C109.447487,348.977539 123.687744,347.540771 137.928619,346.110138 
	C139.470337,345.955231 140.969803,345.851959 141.451553,347.893555 
	C142.049301,350.426788 139.344910,355.908112 136.878265,356.391205 
	C132.966782,357.157288 128.995056,357.679688 125.025894,358.074646 
	C115.263802,359.046051 105.494339,359.958679 95.714622,360.726746 
	C93.345932,360.912750 89.504349,362.769836 89.201057,358.783997 
	C88.955009,355.550415 89.180687,351.081085 94.790634,350.485352 
z"/>
<path fill="#000000" opacity="1.000000" stroke="none" 
	d="
M119.805466,541.824097 
	C124.181404,537.078430 128.326202,532.602234 132.532898,528.059204 
	C137.050720,534.039001 136.957230,537.519104 132.545258,542.386353 
	C123.492409,552.373230 114.459488,562.378235 105.376534,572.337708 
	C104.073792,573.766174 102.903679,575.457458 100.954498,576.071838 
	C96.106316,570.443665 96.125801,567.782593 100.738533,562.760803 
	C107.043839,555.896240 113.298157,548.984924 119.805466,541.824097 
z"/>
<path fill="#000000" opacity="1.000000" stroke="none" 
	d="
M159.517395,288.370361 
	C160.272736,288.493500 160.616486,288.493591 160.930634,288.590118 
	C163.037903,289.237518 166.540802,287.718689 166.623047,291.608917 
	C166.704514,295.461700 162.376678,299.223816 158.972519,298.753418 
	C145.790756,296.931763 132.602325,295.156525 119.431824,293.256897 
	C117.245789,292.941528 113.809593,293.958557 114.061974,289.868073 
	C114.313393,285.793243 117.972237,282.473175 121.557770,282.951477 
	C129.135834,283.962433 136.698685,285.087372 144.267395,286.168121 
	C149.209320,286.873779 154.150574,287.583832 159.517395,288.370361 
z"/>
<path fill="#000000" opacity="1.000000" stroke="none" 
	d="
M177.225403,228.725342 
	C184.422028,231.456665 191.284241,233.979843 198.079971,236.670914 
	C200.059174,237.454666 203.498917,238.041946 201.630768,241.217087 
	C200.072159,243.866119 198.813995,248.165833 193.901031,246.223969 
	C183.394516,242.071198 172.868439,237.967926 162.350174,233.844864 
	C160.185165,232.996201 157.960129,232.272232 155.872192,231.264145 
	C154.140533,230.428085 150.704483,230.278000 152.280060,227.219757 
	C153.713104,224.438126 154.859192,219.995865 159.731766,221.775360 
	C165.501968,223.882675 171.159363,226.298889 177.225403,228.725342 
z"/>
<path fill="#000000" opacity="1.000000" stroke="none" 
	d="
M567.713013,126.745056 
	C573.393860,119.558983 578.852905,112.651268 584.325012,105.753990 
	C586.710388,102.747353 592.344421,103.017845 594.377869,106.181526 
	C595.452332,107.853165 594.433899,108.976845 593.498169,110.160736 
	C584.847351,121.105080 576.213440,132.062790 567.535706,142.985733 
	C565.341064,145.748215 559.731384,145.591614 557.578491,142.775345 
	C556.187683,140.955948 557.587524,139.667740 558.572205,138.392731 
	C561.516235,134.580658 564.517456,130.812775 567.713013,126.745056 
z"/>
<path fill="#000000" opacity="1.000000" stroke="none" 
	d="
M237.662628,189.305542 
	C239.481491,190.521164 241.137009,191.382629 242.492020,192.583237 
	C244.218063,194.112579 248.283264,194.980408 245.280411,198.458282 
	C243.009430,201.088531 240.872299,204.094391 236.273666,200.676163 
	C225.743134,192.848602 214.741531,185.655777 203.959351,178.164734 
	C202.083771,176.861618 199.399200,175.336960 201.860855,172.761597 
	C203.889709,170.639053 205.723785,166.862442 210.016068,169.955978 
	C219.043213,176.462067 228.239136,182.733978 237.662628,189.305542 
z"/>
<path fill="#000000" opacity="1.000000" stroke="none" 
	d="
M273.486786,135.525208 
	C280.643707,143.659500 287.551849,151.540527 294.494568,159.390976 
	C295.964722,161.053360 298.003662,163.007111 295.390015,164.735413 
	C293.017822,166.304108 290.444763,170.036530 286.912567,165.922165 
	C280.192261,158.094269 273.338409,150.380966 266.537445,142.622330 
	C264.343689,140.119614 262.133179,137.631470 259.946564,135.122574 
	C258.338104,133.277084 257.457092,131.250351 260.101227,129.717499 
	C262.424927,128.370422 264.717896,125.064003 267.764465,128.784821 
	C269.556519,130.973495 271.419342,133.104218 273.486786,135.525208 
z"/>
<path fill="#000000" opacity="1.000000" stroke="none" 
	d="
M516.863525,110.906998 
	C519.918213,103.297630 522.985779,96.099060 525.633057,88.749115 
	C527.383545,83.889084 530.657043,85.449829 533.787720,86.296616 
	C537.494446,87.299202 535.869202,89.841339 535.055664,91.888741 
	C530.200623,104.107277 525.125061,116.240349 520.432800,128.520294 
	C518.633484,133.229340 515.586792,132.062103 512.338074,131.134705 
	C508.241455,129.965286 510.280273,127.189949 511.039703,125.113411 
	C512.752563,120.430122 514.791443,115.866051 516.863525,110.906998 
z"/>
<path fill="#000000" opacity="1.000000" stroke="none" 
	d="
M323.733765,99.434898 
	C328.191437,96.845329 330.489258,98.173340 332.469666,102.443420 
	C337.718140,113.759903 343.362122,124.894165 348.931427,136.059692 
	C350.178802,138.560425 351.019928,140.827271 347.688843,142.199371 
	C344.971497,143.318665 342.264740,144.969208 340.239105,140.739212 
	C334.422668,128.592941 328.357605,116.565414 322.350861,104.510849 
	C321.357452,102.517273 320.749603,100.745155 323.733765,99.434898 
z"/>
<path fill="#000000" opacity="1.000000" stroke="none" 
	d="
M452.856323,113.180084 
	C453.830688,102.968208 454.710114,93.207779 455.753571,83.464920 
	C456.021851,80.960121 455.636597,77.881035 459.112549,76.958710 
	C464.004028,75.660782 466.576630,77.785240 466.082825,82.829506 
	C464.820923,95.719513 463.444672,108.598473 462.221283,121.492012 
	C461.922668,124.639191 460.614563,125.875549 457.378662,125.517273 
	C454.531097,125.202011 451.973175,125.198334 452.561371,121.115997 
	C452.914978,118.661758 452.752808,116.133217 452.856323,113.180084 
z"/>
<path fill="#000000" opacity="1.000000" stroke="none" 
	d="
M392.886963,111.869896 
	C391.313995,103.476677 389.934357,95.476257 388.170288,87.561523 
	C387.270721,83.525612 389.023438,82.308548 392.527679,81.445770 
	C396.553925,80.454475 397.567749,82.652199 398.169617,85.730217 
	C400.457306,97.429871 402.928070,109.099785 404.865021,120.857491 
	C405.322449,123.634224 408.108459,127.988441 402.246490,129.283173 
	C398.378723,130.137436 395.923737,129.823975 395.531189,124.910637 
	C395.191956,120.664070 393.830658,116.499161 392.886963,111.869896 
z"/>
</svg>