<?xml version="1.0" standalone="no"?>
<!DOCTYPE svg PUBLIC "-//W3C//DTD SVG 20010904//EN"
 "http://www.w3.org/TR/2001/REC-SVG-20010904/DTD/svg10.dtd">
<svg version="1.0" xmlns="http://www.w3.org/2000/svg"
 width="56" height="56" viewBox="0 0 251.000000 201.000000"
 preserveAspectRatio="xMidYMid meet">
<metadata>
Created by potrace 1.10, written by Peter Selinger 2001-2011
</metadata>
<g transform="translate(0.000000,201.000000) scale(0.100000,-0.100000)"
fill="#38761d" stroke="none">
<path d="M1070 1975 c-230 -51 -421 -183 -547 -378 -211 -324 -178 -756 79
-1041 175 -194 390 -289 653 -288 145 0 237 22 370 86 178 85 314 222 400 399
69 144 80 196 79 382 0 148 -2 166 -28 245 -53 160 -117 261 -239 377 -94 89
-203 154 -327 195 -84 27 -111 31 -235 34 -97 3 -160 -1 -205 -11z m400 -35
c292 -83 507 -300 592 -598 29 -102 32 -314 5 -411 -43 -157 -99 -259 -206
-373 -112 -120 -235 -196 -388 -240 -66 -20 -101 -23 -233 -23 -149 1 -159 2
-250 33 -286 99 -493 323 -561 610 -28 118 -23 322 11 427 99 310 334 523 650
591 93 19 283 11 380 -16z"/>
<path d="M1145 1883 c-169 -24 -342 -115 -456 -242 -305 -338 -252 -858 116
-1129 66 -49 82 -42 37 15 -53 67 -65 157 -28 208 12 17 15 17 50 -11 38 -30
66 -71 66 -98 0 -8 -14 -31 -30 -49 -17 -19 -30 -41 -30 -49 0 -19 86 -98 107
-98 10 0 26 -7 36 -14 14 -11 66 -14 220 -15 111 -1 223 -4 250 -7 26 -4 47
-5 47 -2 0 2 -9 23 -20 46 -19 40 -26 114 -14 157 4 17 14 20 62 21 63 0 134
30 152 63 5 11 10 42 10 69 0 31 5 54 15 62 11 9 13 27 9 74 l-5 61 43 15 c58
20 59 40 9 154 -23 52 -41 105 -41 119 0 14 -9 46 -20 71 -10 25 -15 48 -10
51 19 12 4 82 -28 122 -23 30 -28 43 -20 51 9 9 9 18 0 37 -13 28 -28 31 -56
10 -28 -21 -38 -19 -31 6 6 19 3 20 -34 18 -22 -2 -41 0 -41 4 0 4 0 16 0 26
0 11 27 50 59 88 68 77 70 73 -44 118 -113 45 -264 64 -380 48z m292 -44 c39
-10 90 -27 112 -39 l42 -21 -42 -49 -41 -49 -47 18 c-72 29 -185 44 -263 37
-311 -31 -540 -269 -556 -577 -7 -141 22 -251 98 -367 36 -56 38 -65 33 -114
-4 -36 0 -65 10 -91 9 -20 12 -37 8 -37 -15 0 -117 116 -160 182 -115 176
-150 408 -90 604 118 386 503 603 896 503z m-125 -128 c94 -12 176 -40 183
-61 8 -26 -9 -61 -49 -99 -20 -19 -36 -32 -36 -28 0 23 34 85 58 106 15 13 20
21 12 18 -8 -2 -47 4 -85 14 -487 127 -873 -388 -618 -825 40 -69 38 -110 -3
-55 -43 58 -83 151 -100 229 -39 182 16 378 145 513 113 121 239 179 416 195
6 1 40 -3 77 -7z m52 -66 c38 -8 71 -16 73 -18 2 -2 -3 -17 -12 -33 -10 -19
-15 -23 -15 -11 0 9 -4 17 -9 17 -18 0 -81 -67 -81 -86 0 -17 -1 -17 -13 0
-12 17 -15 16 -45 -14 -17 -17 -36 -46 -41 -63 -7 -25 -9 -27 -10 -9 -1 12 -5
22 -10 22 -18 0 -61 -61 -72 -103 -18 -67 -29 -94 -54 -127 l-23 -31 5 48 c6
52 33 109 52 106 6 -2 11 4 11 12 0 23 -27 7 -50 -30 -11 -18 -20 -43 -20 -56
-1 -22 -2 -22 -11 -6 -9 15 -13 16 -25 6 -21 -18 -44 -64 -45 -91 0 -13 -3
-17 -6 -10 -2 6 -9 12 -14 12 -16 0 -49 -63 -49 -94 0 -24 -2 -26 -14 -16 -12
9 -18 4 -35 -29 -12 -22 -21 -50 -21 -61 0 -12 -5 -18 -10 -15 -6 4 -19 -12
-29 -35 -21 -48 -22 -48 -50 44 -25 81 -28 204 -6 285 60 227 275 397 505 400
30 0 86 -6 124 -14z m205 -72 c-17 -20 -70 -43 -100 -43 -19 0 -20 2 -8 17 18
20 67 42 98 43 21 0 22 -2 10 -17z m-173 -9 c-4 -9 -4 -26 0 -37 5 -16 12 -18
44 -14 30 4 37 2 33 -9 -7 -18 -83 -54 -114 -54 -24 1 -24 1 7 28 17 15 29 32
27 39 -2 6 -19 -4 -38 -25 -27 -29 -35 -33 -35 -19 0 10 5 28 11 40 25 48 80
91 65 51z m264 -25 c0 -10 -5 -19 -11 -19 -6 0 8 -22 30 -49 23 -27 38 -52 34
-54 -5 -3 -37 -13 -72 -22 -86 -22 -173 -67 -227 -117 -24 -22 -74 -85 -111
-139 -37 -55 -70 -99 -74 -99 -3 0 -12 6 -18 14 -14 17 -8 28 77 144 78 107
204 245 286 312 71 59 86 64 86 29z m-80 7 c0 -2 -32 -35 -71 -73 -88 -85
-206 -223 -266 -314 -35 -53 -56 -74 -89 -88 -51 -23 -73 -71 -55 -123 10 -28
8 -35 -16 -60 -31 -33 -20 -38 14 -6 13 12 26 18 29 15 8 -7 -24 -35 -90 -79
-23 -16 -35 -28 -27 -28 17 0 77 36 109 64 20 18 24 18 33 6 5 -8 8 -25 6 -38
-3 -13 2 -57 10 -98 10 -54 11 -79 3 -89 -6 -7 -43 -14 -91 -17 -44 -3 -84 -9
-89 -14 -14 -14 171 -5 189 9 13 11 11 82 -6 176 -5 30 -4 32 12 23 36 -20 72
-220 43 -239 -7 -4 -75 -8 -151 -8 l-137 0 6 47 c6 46 6 48 -52 109 -33 34
-51 59 -41 56 23 -9 66 9 100 41 34 32 36 62 5 63 -23 0 -23 0 -2 9 22 9 74
65 74 81 0 5 -8 9 -17 9 -12 0 -8 6 14 20 41 25 61 59 42 72 -12 8 -11 11 1
15 21 9 70 59 70 72 0 6 -10 11 -22 11 -16 1 -11 5 17 15 46 16 87 58 79 80
-4 9 0 15 9 15 24 0 77 49 77 71 0 11 7 19 16 19 23 0 72 37 79 60 4 11 17 23
31 26 13 3 34 19 47 34 30 35 107 75 107 56z m-276 -68 c3 -17 2 -36 -3 -41
-6 -6 -8 -1 -5 14 4 18 0 15 -15 -12 -11 -19 -27 -41 -35 -48 -14 -12 -16 -10
-16 13 0 29 13 60 38 89 21 24 29 21 36 -15z m74 -50 c-8 -22 -53 -48 -93 -55
-38 -6 -39 -5 -25 12 34 42 129 76 118 43z m-178 -25 c0 -25 -12 -49 -52 -106
-11 -14 -10 -19 0 -26 10 -6 7 -10 -11 -13 -20 -4 -24 -1 -20 11 4 9 9 21 13
26 4 6 10 28 13 49 5 31 39 86 54 86 2 0 3 -12 3 -27z m19 -54 c-18 -11 -19
-8 -12 20 5 21 7 21 16 6 6 -12 5 -20 -4 -26z m471 21 c0 -10 -32 -30 -49 -30
-18 0 -12 28 7 33 30 8 42 7 42 -3z m30 0 c0 -5 -4 -10 -10 -10 -5 0 -10 5
-10 10 0 6 5 10 10 10 6 0 10 -4 10 -10z m-119 -28 c-12 -22 -29 -36 -53 -45
-14 -5 -18 -1 -18 17 0 23 28 44 63 45 14 1 16 -3 8 -17z m-318 -7 c-7 -21
-76 -55 -109 -55 -27 0 -27 0 -8 21 36 41 131 68 117 34z m454 -110 c3 -22 23
-78 44 -124 22 -46 39 -90 39 -97 0 -8 -21 -24 -47 -36 -40 -19 -48 -28 -48
-50 0 -28 -41 -68 -69 -68 -9 0 -16 -4 -16 -10 0 -17 25 -11 60 15 33 24 55
26 32 3 -9 -9 -9 -15 1 -26 10 -13 7 -14 -21 -9 -21 4 -31 3 -27 -3 3 -6 13
-10 21 -10 11 0 12 -4 5 -18 -5 -10 -10 -37 -9 -59 0 -52 -5 -61 -56 -84 -79
-36 -169 -22 -263 41 -94 62 -155 123 -147 146 7 18 6 18 -12 2 -25 -22 -36
-14 -79 52 -23 36 -35 66 -35 90 0 101 108 110 123 10 3 -20 10 -25 33 -24 16
0 35 -6 43 -13 7 -8 27 -13 45 -11 24 2 32 9 40 33 9 33 19 56 43 100 13 23
14 37 5 69 -11 44 -7 66 15 66 8 0 26 13 41 29 15 16 39 33 54 36 14 4 36 18
49 31 12 13 32 24 43 24 12 0 28 5 36 10 12 7 19 1 33 -33 11 -23 21 -60 24
-82z m-238 58 c-14 -36 -28 -53 -46 -53 -8 0 -23 -10 -32 -22 -12 -14 -24 -19
-36 -14 -16 6 -15 10 16 43 33 34 86 73 101 73 4 0 3 -12 -3 -27z m-463 -87
c-7 -38 -34 -79 -47 -71 -16 11 -10 69 12 104 19 31 22 33 31 17 5 -10 7 -32
4 -50z m164 55 c0 -14 -60 -61 -78 -61 -9 0 -30 -7 -46 -15 -35 -19 -36 -19
-36 1 0 8 5 12 10 9 6 -4 20 5 32 20 31 39 118 73 118 46z m180 -108 c0 -8
-13 -31 -30 -50 -44 -50 -36 -63 11 -18 29 29 39 46 36 63 -6 29 9 38 22 13
17 -31 13 -57 -14 -89 -14 -17 -25 -43 -25 -59 0 -50 -32 -62 -68 -26 -8 7
-19 10 -25 6 -7 -4 -8 0 -4 11 4 10 7 35 7 57 0 31 8 47 36 79 36 39 54 44 54
13z m-420 -5 c0 -6 8 -17 18 -24 14 -11 21 -9 43 12 17 16 43 28 70 31 l44 5
-32 -33 c-27 -28 -40 -33 -83 -35 -34 -2 -48 1 -44 8 4 7 2 8 -4 4 -7 -4 -12
-15 -12 -25 0 -10 -9 -30 -20 -44 -25 -31 -26 -57 -2 -57 14 0 15 -2 2 -10 -8
-5 -18 -10 -22 -10 -13 0 -6 144 8 173 14 26 34 29 34 5z m50 -65 c-8 -3 -23
-10 -32 -15 -14 -6 -16 -5 -12 7 4 8 18 15 33 14 15 0 20 -3 11 -6z m-113 -91
c-3 -24 -11 -51 -20 -60 -21 -24 -10 -42 26 -43 l32 -1 -28 -8 c-16 -5 -34
-14 -41 -20 -11 -8 -13 -2 -11 35 2 28 -2 50 -9 58 -14 12 -6 59 16 101 11 19
11 19 25 0 10 -12 13 -34 10 -62z m147 47 c-21 -21 -44 -32 -74 -36 l-43 -6
16 24 c23 32 55 48 97 49 l35 0 -31 -31z m226 -19 c-6 -11 -15 -18 -20 -15 -6
4 -3 20 7 38 13 24 18 28 21 15 2 -9 -2 -26 -8 -38z m-260 -50 c0 -21 -49 -59
-84 -66 -46 -8 -52 -2 -32 28 9 14 13 28 9 33 -5 4 -3 5 4 2 6 -4 22 -3 35 2
32 13 68 13 68 1z m-170 -85 c0 -23 -6 -50 -14 -60 -13 -18 -14 -17 -30 13
-20 38 -20 44 0 90 15 35 16 36 30 18 8 -11 14 -38 14 -61z m130 -13 c0 -34
-68 -76 -114 -70 l-26 3 23 29 c15 18 37 31 63 36 55 11 54 11 54 2z m306
-108 c57 -55 153 -119 189 -128 22 -6 24 -10 18 -34 -10 -35 -10 -120 0 -152
l8 -25 -143 2 c-79 2 -142 5 -140 8 1 3 2 12 2 20 0 9 11 20 24 25 29 11 40
38 28 71 -5 13 -7 43 -4 66 3 35 -3 69 -34 176 -8 25 -3 22 52 -29z m-231
-242 c-3 -21 -1 -50 4 -65 13 -34 -2 -44 -29 -17 -14 14 -20 33 -20 63 0 49 5
57 33 57 16 0 18 -5 12 -38z m95 18 c0 -12 11 -32 25 -46 30 -30 32 -50 6 -64
-56 -30 -101 4 -101 76 0 48 4 54 42 54 22 0 28 -5 28 -20z m98 -12 c-4 -42
-38 -51 -62 -16 -22 31 -20 36 17 41 17 2 36 5 40 5 5 1 7 -13 5 -30z m-318
18 c0 -2 -3 -12 -6 -20 -5 -13 -9 -14 -20 -5 -16 13 -9 29 12 29 8 0 14 -2 14
-4z m60 -42 c0 -37 -3 -45 -17 -42 -19 3 -38 51 -29 73 3 8 15 15 26 15 17 0
20 -6 20 -46z"/>
<path d="M1260 1837 c0 -8 -3 -29 -6 -46 -4 -18 -2 -31 4 -31 12 0 21 79 10
86 -4 3 -8 -1 -8 -9z"/>
<path d="M1134 1811 c3 -18 6 -40 6 -47 0 -8 5 -14 10 -14 13 0 2 70 -13 85
-6 7 -8 -1 -3 -24z"/>
<path d="M1378 1790 c-9 -22 -13 -42 -8 -45 4 -3 13 7 18 23 5 15 13 35 17 45
4 9 3 17 -1 17 -5 0 -17 -18 -26 -40z"/>
<path d="M1000 1805 c0 -13 42 -86 46 -82 6 5 -33 87 -41 87 -3 0 -5 -2 -5 -5z"/>
<path d="M1480 1760 c-17 -22 -27 -40 -21 -40 12 0 66 69 59 76 -3 3 -20 -13
-38 -36z"/>
<path d="M880 1742 c0 -11 59 -67 64 -61 5 4 -50 69 -59 69 -3 0 -5 -4 -5 -8z"/>
<path d="M770 1663 c0 -8 65 -53 75 -53 15 0 1 18 -30 38 -37 24 -45 26 -45
15z"/>
<path d="M676 1562 c-2 -4 15 -15 40 -24 24 -8 46 -13 49 -9 2 4 -16 14 -40
23 -25 10 -47 14 -49 10z"/>
<path d="M600 1441 c0 -10 90 -20 96 -10 2 4 -13 9 -34 13 -51 8 -62 8 -62 -3z"/>
<path d="M583 1323 c-18 -2 -33 -9 -33 -15 0 -5 7 -7 16 -4 9 3 31 6 50 6 19
0 34 5 34 10 0 10 -7 10 -67 3z"/>
<path d="M571 1196 c-19 -7 -36 -17 -38 -23 -3 -7 14 -4 42 5 25 9 45 20 45
24 0 10 -7 9 -49 -6z"/>
<path d="M573 1067 c-24 -17 -41 -33 -38 -35 7 -7 85 47 85 58 0 13 2 14 -47
-23z"/>
<path d="M601 943 c-17 -21 -31 -42 -31 -47 0 -12 49 33 62 57 18 34 1 28 -31
-10z"/>
<path d="M650 816 c-13 -25 -21 -48 -18 -52 8 -7 51 73 46 87 -2 5 -14 -11
-28 -35z"/>
<path d="M721 723 c-7 -29 -11 -58 -9 -65 3 -7 10 10 17 39 7 29 11 58 9 65
-3 7 -10 -10 -17 -39z"/>
<path d="M1583 1222 c-23 -15 -42 -31 -43 -36 0 -5 10 -1 23 8 55 40 80 49
100 36 15 -9 18 -9 15 2 -8 23 -52 19 -95 -10z"/>
<path d="M1618 1184 c-25 -12 -49 -28 -53 -33 -3 -6 -15 -11 -26 -11 -10 0
-19 -4 -19 -10 0 -6 29 -10 68 -10 63 0 68 2 69 23 1 12 5 32 8 45 3 12 4 22
3 21 -2 -1 -24 -12 -50 -25z m30 -31 c-2 -13 -14 -19 -43 -21 l-40 -2 24 20
c29 25 64 27 59 3z"/>
<path d="M1147 1032 c-29 -32 -22 -83 17 -120 37 -34 46 -39 46 -20 0 6 -3 9
-6 6 -3 -4 -19 8 -35 24 -33 35 -39 87 -13 109 22 18 36 -6 28 -48 -5 -28 -3
-33 12 -32 11 0 14 3 7 5 -8 4 -10 16 -6 35 5 27 -9 59 -27 59 -4 0 -14 -8
-23 -18z"/>
<path d="M1680 995 c0 -20 5 -35 12 -35 21 0 78 24 78 32 0 5 -13 2 -30 -7
-44 -23 -53 -20 -46 15 3 17 1 30 -4 30 -6 0 -10 -16 -10 -35z"/>
<path d="M0 165 l0 -25 1256 0 1255 0 -3 23 -3 22 -1252 3 -1253 2 0 -25z"/>
<path d="M1969 99 c-24 -24 -24 -54 0 -78 22 -22 61 -18 61 6 0 12 -2 12 -15
-1 -23 -23 -45 -9 -45 28 0 44 18 61 42 39 16 -14 18 -14 18 -1 0 25 -39 29
-61 7z"/>
<path d="M11 60 c-1 -27 2 -50 6 -50 5 0 7 19 6 43 l-2 42 12 -45 c7 -25 16
-40 19 -34 8 12 -16 87 -29 91 -5 2 -10 -19 -12 -47z"/>
<path d="M74 94 c3 -9 6 -31 6 -50 0 -19 3 -34 8 -34 4 0 7 23 7 50 0 35 -4
50 -14 50 -8 0 -11 -6 -7 -16z"/>
<path d="M177 96 c-4 -9 -2 -18 3 -21 5 -3 11 -19 15 -35 4 -17 10 -30 15 -30
7 0 -14 88 -24 97 -2 2 -6 -3 -9 -11z"/>
<path d="M279 83 l21 -26 -22 -24 c-12 -12 -16 -23 -10 -23 6 0 17 10 23 22
l12 23 10 -23 c6 -12 17 -22 26 -22 10 0 12 3 5 8 -6 4 -16 17 -23 29 -10 19
-8 26 9 43 15 15 16 20 6 20 -8 0 -18 -10 -22 -22 l-7 -23 -10 23 c-6 12 -16
22 -24 22 -11 0 -9 -7 6 -27z"/>
<path d="M458 60 c2 -29 9 -50 16 -50 7 0 10 15 8 45 -3 36 -1 45 12 45 19 0
21 -21 4 -38 -8 -8 -8 -12 -1 -12 6 0 16 7 23 15 17 21 -4 45 -39 45 -25 0
-26 -2 -23 -50z"/>
<path d="M565 60 c0 -49 0 -50 31 -50 21 0 34 6 39 18 5 14 4 15 -6 5 -7 -7
-21 -13 -31 -13 -14 0 -18 8 -18 39 0 22 5 42 13 44 6 3 3 6 -8 6 -17 1 -20
-5 -20 -49z"/>
<path d="M682 60 c-11 -27 -17 -50 -11 -50 5 0 9 7 9 15 0 8 4 15 10 15 5 0 7
7 4 15 -4 8 -2 15 4 15 6 0 13 -14 17 -30 4 -17 10 -30 15 -30 7 0 -14 87 -24
97 -2 2 -13 -19 -24 -47z"/>
<path d="M799 91 c11 -11 28 -35 37 -53 19 -34 20 -32 26 35 3 23 0 37 -7 37
-7 0 -10 -13 -8 -32 l4 -33 -21 33 c-12 17 -28 32 -36 32 -10 0 -9 -5 5 -19z"/>
<path d="M910 91 c-15 -29 -12 -49 9 -70 22 -22 61 -18 61 6 0 12 -2 12 -15
-1 -9 -8 -22 -13 -30 -10 -18 7 -20 65 -3 82 9 9 9 12 0 12 -6 0 -16 -9 -22
-19z"/>
<path d="M950 106 c0 -2 7 -9 15 -16 12 -10 15 -10 15 4 0 9 -7 16 -15 16 -8
0 -15 -2 -15 -4z"/>
<path d="M1019 101 c9 -6 12 -22 9 -50 -2 -22 0 -41 4 -41 5 0 8 12 8 28 l1
27 17 -27 c9 -16 23 -28 31 -28 11 0 9 6 -7 23 -28 29 -28 42 0 61 12 9 17 16
9 16 -7 0 -22 -10 -33 -22 l-20 -23 5 23 c4 17 1 22 -16 22 -16 0 -18 -3 -8
-9z"/>
<path d="M1222 98 c-17 -17 -15 -64 4 -82 22 -23 34 -20 63 17 12 15 11 17
-15 17 -22 0 -25 -3 -14 -10 12 -7 12 -12 3 -21 -15 -15 -43 5 -43 31 0 46 30
66 58 38 9 -9 12 -8 12 5 0 20 -49 24 -68 5z"/>
<path d="M1329 101 c9 -6 12 -22 9 -50 l-4 -42 35 3 c19 2 36 9 37 16 1 7 0 8
-3 2 -2 -5 -16 -10 -29 -10 -21 0 -24 4 -24 41 0 39 2 41 25 37 14 -3 25 -1
25 3 0 5 -19 9 -42 9 -28 0 -38 -3 -29 -9z"/>
<path d="M1447 103 c-14 -14 -6 -34 18 -45 26 -12 33 -32 15 -43 -6 -4 -17 -1
-25 5 -9 7 -15 8 -15 2 0 -16 31 -23 46 -11 22 18 17 49 -11 59 -14 5 -25 14
-25 20 0 14 37 12 43 -2 3 -8 6 -6 6 5 1 11 -6 17 -22 17 -13 0 -27 -3 -30 -7z"/>
<path d="M1539 101 c9 -6 12 -22 9 -50 -2 -22 0 -41 4 -41 5 0 8 21 8 46 0 44
1 46 25 42 14 -3 25 -1 25 3 0 5 -19 9 -42 9 -28 0 -38 -3 -29 -9z"/>
<path d="M1655 60 c0 -49 0 -50 31 -50 21 0 34 6 39 18 5 14 4 15 -6 5 -7 -7
-21 -13 -31 -13 -14 0 -18 8 -18 39 0 22 5 42 13 44 6 3 3 6 -8 6 -17 1 -20
-5 -20 -49z"/>
<path d="M1758 60 c2 -27 8 -50 12 -50 4 0 10 23 12 50 2 39 0 50 -12 50 -12
0 -14 -11 -12 -50z"/>
<path d="M1853 94 c-7 -18 20 -44 44 -44 18 0 17 -27 -2 -34 -8 -3 -21 2 -30
10 -13 13 -15 13 -15 1 0 -18 32 -27 54 -15 26 15 19 44 -14 58 -32 13 -38 25
-17 33 9 4 9 6 -1 6 -7 1 -15 -6 -19 -15z"/>
<path d="M1895 100 c3 -5 8 -10 11 -10 2 0 4 5 4 10 0 6 -5 10 -11 10 -5 0 -7
-4 -4 -10z"/>
<path d="M2068 60 c2 -27 8 -50 12 -50 4 0 10 23 12 50 2 39 0 50 -12 50 -12
0 -14 -11 -12 -50z"/>
<path d="M2128 60 c2 -27 8 -50 12 -50 4 0 10 23 12 50 2 39 0 50 -12 50 -12
0 -14 -11 -12 -50z"/>
<path d="M2227 96 c-9 -24 -9 -28 3 -21 6 3 10 -1 10 -10 0 -10 -6 -15 -13
-12 -7 2 -18 -6 -24 -19 -9 -19 -8 -24 3 -24 8 0 13 5 12 12 -2 6 5 14 15 16
10 2 17 -2 17 -12 0 -9 5 -16 11 -16 11 0 7 19 -15 75 -10 25 -13 27 -19 11z"/>
<path d="M2318 60 c5 -62 22 -66 22 -5 0 38 3 45 19 45 11 0 22 -6 24 -12 3
-8 6 -6 6 5 1 13 -7 17 -36 17 l-38 0 3 -50z"/>
<path d="M2410 95 c0 -8 2 -15 4 -15 2 0 6 7 10 15 3 8 1 15 -4 15 -6 0 -10
-7 -10 -15z"/>
<path d="M2438 60 c-2 -35 1 -50 10 -50 8 0 12 17 12 50 0 65 -17 65 -22 0z"/>
<path d="M2476 95 c4 -8 10 -15 15 -15 4 0 6 7 3 15 -4 8 -10 15 -15 15 -4 0
-6 -7 -3 -15z"/>
<path d="M788 50 c-2 -24 1 -40 7 -40 6 0 9 16 7 40 -2 22 -5 40 -7 40 -2 0
-5 -18 -7 -40z"/>
<path d="M61 64 c0 -11 3 -14 6 -6 3 7 2 16 -1 19 -3 4 -6 -2 -5 -13z"/>
<path d="M1366 72 c-2 -4 -1 -14 5 -22 7 -12 9 -10 9 8 0 23 -5 28 -14 14z"/>
<path d="M1574 69 c-3 -6 -1 -16 5 -22 8 -8 11 -5 11 11 0 24 -5 28 -16 11z"/>
<path d="M2354 69 c-3 -6 -1 -16 4 -21 8 -8 11 -5 9 11 -1 24 -3 25 -13 10z"/>
<path d="M153 40 c-6 -17 -7 -30 -2 -30 5 0 9 6 9 14 0 8 4 16 10 18 5 2 6 8
2 15 -5 8 -12 3 -19 -17z"/>
<path d="M380 42 c0 -4 9 -8 20 -9 11 -1 20 2 20 8 0 5 -9 9 -20 9 -11 0 -20
-4 -20 -8z"/>
<path d="M1135 40 c3 -5 13 -10 21 -10 8 0 14 5 14 10 0 6 -9 10 -21 10 -11 0
-17 -4 -14 -10z"/>
<path d="M1590 24 c-24 -13 -24 -14 -4 -14 12 0 24 7 28 15 3 8 4 15 3 14 -1
-1 -13 -7 -27 -15z"/>
<path d="M1820 31 c0 -5 -8 -12 -17 -14 -14 -4 -12 -5 5 -6 13 -1 22 5 22 14
0 8 -2 15 -5 15 -3 0 -5 -4 -5 -9z"/>
</g>
</svg>
