<svg id="svg" version="1.1" xmlns="http://www.w3.org/2000/svg" xmlns:xlink="http://www.w3.org/1999/xlink" width="56" height="56" viewBox="0, 0, 400,418.8976377952756"><g id="svgg"><path id="path0" d="M81.890 27.559 C 81.890 27.776,81.535 27.953,81.102 27.953 C 80.610 27.953,80.315 28.215,80.315 28.653 C 80.315 29.039,79.961 29.609,79.528 29.921 C 79.094 30.233,78.740 30.804,78.740 31.189 C 78.740 31.575,78.563 31.890,78.346 31.890 C 78.086 31.890,77.953 51.444,77.953 89.764 C 77.953 128.084,77.820 147.638,77.559 147.638 C 77.308 147.638,77.165 150.919,77.165 156.693 C 77.165 162.467,77.308 165.748,77.559 165.748 C 77.819 165.748,77.953 182.546,77.953 215.354 C 77.953 248.163,78.086 264.961,78.346 264.961 C 78.563 264.961,78.740 265.315,78.740 265.748 C 78.740 266.181,78.917 266.535,79.134 266.535 C 79.350 266.535,79.528 266.814,79.528 267.154 C 79.528 267.950,80.475 268.898,81.271 268.898 C 81.611 268.898,81.890 269.075,81.890 269.291 C 81.890 269.508,82.244 269.685,82.677 269.685 C 83.110 269.685,83.465 269.862,83.465 270.079 C 83.465 270.340,122.835 270.472,200.787 270.472 C 278.740 270.472,318.110 270.340,318.110 270.079 C 318.110 269.862,318.380 269.685,318.709 269.685 C 319.039 269.685,320.279 268.714,321.465 267.528 L 323.622 265.371 323.622 188.788 C 323.622 137.995,323.755 112.205,324.016 112.205 C 324.267 112.205,324.409 108.924,324.409 103.150 C 324.409 97.375,324.267 94.094,324.016 94.094 C 323.757 94.094,323.622 83.396,323.622 62.787 L 323.622 31.479 321.465 29.322 L 319.308 27.165 200.599 27.165 C 121.722 27.165,81.890 27.297,81.890 27.559 M307.087 148.425 L 307.087 253.150 201.181 253.150 L 95.276 253.150 95.276 148.425 L 95.276 43.701 201.181 43.701 L 307.087 43.701 307.087 148.425 " stroke="none" fill="#0493c2" fill-rule="evenodd"></path><path id="path1" d="M158.268 94.488 C 158.268 94.705,157.996 94.882,157.664 94.882 C 156.880 94.882,154.331 97.432,154.331 98.215 C 154.331 98.547,154.154 98.819,153.937 98.819 C 153.720 98.819,153.543 99.173,153.543 99.606 C 153.543 100.039,153.366 100.394,153.150 100.394 C 152.892 100.394,152.756 108.530,152.756 124.016 L 152.756 147.638 124.016 147.638 L 95.276 147.638 95.276 156.693 L 95.276 165.748 124.016 165.748 L 152.756 165.748 152.756 209.449 L 152.756 253.150 161.811 253.150 L 170.866 253.150 170.866 209.449 L 170.866 165.748 211.024 165.748 L 251.181 165.748 251.181 209.449 L 251.181 253.150 260.236 253.150 L 269.291 253.150 269.291 203.543 C 269.291 170.735,269.158 153.937,268.898 153.937 C 268.681 153.937,268.504 153.667,268.504 153.338 C 268.504 152.558,264.371 148.425,263.591 148.425 C 263.262 148.425,262.992 148.248,262.992 148.031 C 262.992 147.771,247.375 147.638,216.929 147.638 L 170.866 147.638 170.866 129.921 L 170.866 112.205 238.583 112.205 L 306.299 112.205 306.299 103.150 L 306.299 94.094 232.283 94.094 C 183.202 94.094,158.268 94.227,158.268 94.488 M324.409 103.150 L 324.409 112.205 353.150 112.205 L 381.890 112.205 381.890 216.535 L 381.890 320.866 325.591 320.866 L 269.291 320.866 269.291 296.063 L 269.291 271.260 260.236 271.260 L 251.181 271.260 251.181 296.063 L 251.181 320.866 211.024 320.866 L 170.866 320.866 170.866 296.063 L 170.866 271.260 161.811 271.260 L 152.756 271.260 152.756 301.969 C 152.756 322.178,152.891 332.677,153.150 332.677 C 153.366 332.677,153.543 332.948,153.543 333.278 C 153.543 333.609,154.336 334.672,155.305 335.640 C 156.273 336.609,157.336 337.402,157.667 337.402 C 157.997 337.402,158.268 337.579,158.268 337.795 C 158.268 338.056,174.016 338.189,204.724 338.189 L 251.181 338.189 251.181 356.299 L 251.181 374.409 145.669 374.409 L 40.157 374.409 40.157 270.079 L 40.157 165.748 58.268 165.748 L 76.378 165.748 76.378 156.693 L 76.378 147.638 52.362 147.638 C 36.614 147.638,28.346 147.773,28.346 148.031 C 28.346 148.248,28.073 148.425,27.738 148.425 C 27.403 148.425,26.695 148.860,26.163 149.392 L 25.197 150.358 25.197 270.079 L 25.197 389.800 26.163 390.766 L 27.130 391.732 145.660 391.732 L 264.190 391.732 266.347 389.575 C 267.533 388.389,268.504 387.149,268.504 386.820 C 268.504 386.490,268.681 386.220,268.898 386.220 C 269.156 386.220,269.291 377.953,269.291 362.205 L 269.291 338.189 331.890 338.189 C 373.360 338.189,394.488 338.056,394.488 337.795 C 394.488 337.579,394.760 337.402,395.092 337.402 C 395.875 337.402,398.425 334.852,398.425 334.068 C 398.425 333.736,398.602 333.465,398.819 333.465 C 399.714 333.465,399.321 99.071,398.425 98.425 C 397.992 98.113,397.638 97.542,397.638 97.157 C 397.638 96.748,397.346 96.457,396.937 96.457 C 396.552 96.457,395.981 96.102,395.669 95.669 C 395.357 95.236,394.787 94.882,394.401 94.882 C 394.016 94.882,393.701 94.705,393.701 94.488 C 393.701 94.229,381.890 94.094,359.055 94.094 L 324.409 94.094 324.409 103.150 " stroke="none" fill="#04437b" fill-rule="evenodd"></path><path id="path2" d="M0.000 209.449 L 0.000 418.898 200.000 418.898 L 400.000 418.898 400.000 364.764 C 400.000 328.937,399.867 310.630,399.606 310.630 C 399.353 310.630,399.213 314.698,399.213 322.047 C 399.213 329.396,399.072 333.465,398.819 333.465 C 398.602 333.465,398.425 333.736,398.425 334.068 C 398.425 334.400,397.811 335.286,397.060 336.037 C 396.310 336.787,395.424 337.402,395.092 337.402 C 394.760 337.402,394.488 337.579,394.488 337.795 C 394.488 338.056,373.360 338.189,331.890 338.189 L 269.291 338.189 269.291 362.205 C 269.291 377.953,269.156 386.220,268.898 386.220 C 268.681 386.220,268.504 386.490,268.504 386.820 C 268.504 387.149,267.533 388.389,266.347 389.575 L 264.190 391.732 145.660 391.732 L 27.130 391.732 26.163 390.766 L 25.197 389.800 25.197 270.079 L 25.197 150.358 26.163 149.392 C 26.695 148.860,27.403 148.425,27.738 148.425 C 28.073 148.425,28.346 148.248,28.346 148.031 C 28.346 147.773,36.745 147.638,52.756 147.638 L 77.165 147.638 77.165 90.157 C 77.165 52.100,77.298 32.677,77.559 32.677 C 77.776 32.677,77.953 32.323,77.953 31.890 C 77.953 31.457,78.130 31.102,78.346 31.102 C 78.563 31.102,78.740 30.829,78.740 30.494 C 78.740 29.706,80.494 27.953,81.281 27.953 C 81.616 27.953,81.890 27.776,81.890 27.559 C 81.890 27.297,121.854 27.165,200.995 27.165 L 320.099 27.165 321.861 28.927 C 322.829 29.895,323.622 30.958,323.622 31.289 C 323.622 31.619,323.799 31.890,324.016 31.890 C 324.275 31.890,324.409 42.520,324.409 62.992 L 324.409 94.094 359.055 94.094 C 381.890 94.094,393.701 94.229,393.701 94.488 C 393.701 94.705,394.016 94.882,394.401 94.882 C 394.787 94.882,395.357 95.236,395.669 95.669 C 395.981 96.102,396.552 96.457,396.937 96.457 C 397.346 96.457,397.638 96.748,397.638 97.157 C 397.638 97.542,397.992 98.113,398.425 98.425 C 399.209 98.990,399.213 99.444,399.213 201.268 C 399.213 269.189,399.345 303.543,399.606 303.543 C 399.868 303.543,400.000 252.690,400.000 151.772 L 400.000 0.000 200.000 0.000 L 0.000 0.000 0.000 209.449 M95.276 96.063 L 95.276 147.638 124.016 147.638 L 152.756 147.638 152.756 124.016 C 152.756 108.530,152.892 100.394,153.150 100.394 C 153.366 100.394,153.543 100.039,153.543 99.606 C 153.543 99.173,153.720 98.819,153.937 98.819 C 154.154 98.819,154.331 98.547,154.331 98.215 C 154.331 97.432,156.880 94.882,157.664 94.882 C 157.996 94.882,158.268 94.705,158.268 94.488 C 158.268 94.227,183.202 94.094,232.283 94.094 L 306.299 94.094 306.299 69.291 L 306.299 44.488 200.787 44.488 L 95.276 44.488 95.276 96.063 M170.866 129.921 L 170.866 147.638 216.929 147.638 C 247.375 147.638,262.992 147.771,262.992 148.031 C 262.992 148.248,263.262 148.425,263.591 148.425 C 264.371 148.425,268.504 152.558,268.504 153.338 C 268.504 153.667,268.681 153.937,268.898 153.937 C 269.158 153.937,269.291 170.735,269.291 203.543 L 269.291 253.150 287.795 253.150 L 306.299 253.150 306.299 182.677 L 306.299 112.205 238.583 112.205 L 170.866 112.205 170.866 129.921 M324.409 188.583 C 324.409 239.239,324.277 264.961,324.016 264.961 C 323.799 264.961,323.622 265.230,323.622 265.560 C 323.622 266.339,319.489 270.472,318.709 270.472 C 318.380 270.472,318.110 270.650,318.110 270.866 C 318.110 271.124,309.711 271.260,293.701 271.260 L 269.291 271.260 269.291 296.063 L 269.291 320.866 325.591 320.866 L 381.890 320.866 381.890 216.535 L 381.890 112.205 353.150 112.205 L 324.409 112.205 324.409 188.583 M40.157 270.079 L 40.157 374.409 145.669 374.409 L 251.181 374.409 251.181 356.299 L 251.181 338.189 204.724 338.189 C 174.016 338.189,158.268 338.056,158.268 337.795 C 158.268 337.579,157.997 337.402,157.667 337.402 C 156.886 337.402,153.543 334.059,153.543 333.278 C 153.543 332.948,153.366 332.677,153.150 332.677 C 152.891 332.677,152.756 322.178,152.756 301.969 L 152.756 271.260 118.110 271.260 C 95.276 271.260,83.465 271.126,83.465 270.866 C 83.465 270.650,83.110 270.472,82.677 270.472 C 82.244 270.472,81.890 270.295,81.890 270.079 C 81.890 269.862,81.616 269.685,81.281 269.685 C 80.494 269.685,78.740 267.931,78.740 267.144 C 78.740 266.809,78.563 266.535,78.346 266.535 C 78.130 266.535,77.953 266.181,77.953 265.748 C 77.953 265.315,77.776 264.961,77.559 264.961 C 77.299 264.961,77.165 248.163,77.165 215.354 L 77.165 165.748 58.661 165.748 L 40.157 165.748 40.157 270.079 M95.276 209.449 L 95.276 253.150 124.016 253.150 L 152.756 253.150 152.756 209.449 L 152.756 165.748 124.016 165.748 L 95.276 165.748 95.276 209.449 M170.866 209.449 L 170.866 253.150 211.024 253.150 L 251.181 253.150 251.181 209.449 L 251.181 165.748 211.024 165.748 L 170.866 165.748 170.866 209.449 M170.866 296.063 L 170.866 320.866 211.024 320.866 L 251.181 320.866 251.181 296.063 L 251.181 271.260 211.024 271.260 L 170.866 271.260 170.866 296.063 " stroke="none" fill="#2b2c2c" fill-rule="evenodd"></path><path id="path3" d="M319.685 27.373 C 319.685 27.772,323.286 31.176,323.491 30.971 C 323.605 30.857,322.888 29.954,321.899 28.965 C 320.197 27.263,319.685 26.895,319.685 27.373 M77.165 90.125 C 77.165 135.726,77.064 147.608,76.673 147.748 C 76.403 147.845,76.306 148.058,76.458 148.221 C 76.610 148.385,77.008 148.245,77.343 147.910 C 78.082 147.171,78.296 32.677,77.559 32.677 C 77.298 32.677,77.165 52.089,77.165 90.125 M95.276 44.094 C 95.276 44.356,130.709 44.488,200.787 44.488 C 270.866 44.488,306.299 44.356,306.299 44.094 C 306.299 43.833,270.866 43.701,200.787 43.701 C 130.709 43.701,95.276 43.833,95.276 44.094 M76.378 165.354 C 76.378 165.571,76.555 165.748,76.772 165.748 C 77.032 165.748,77.165 182.546,77.165 215.354 C 77.165 248.163,77.299 264.961,77.559 264.961 C 78.254 264.961,78.087 166.220,77.390 165.523 C 76.731 164.863,76.378 164.805,76.378 165.354 M78.740 267.538 C 78.740 267.945,80.757 269.768,80.971 269.554 C 81.089 269.436,80.732 268.885,80.178 268.331 C 79.198 267.351,78.740 267.098,78.740 267.538 M83.465 270.866 C 83.465 271.126,95.276 271.260,118.110 271.260 C 140.945 271.260,152.756 271.126,152.756 270.866 C 152.756 270.607,140.945 270.472,118.110 270.472 C 95.276 270.472,83.465 270.607,83.465 270.866 M170.866 270.866 C 170.866 271.126,184.514 271.260,211.024 271.260 C 237.533 271.260,251.181 271.126,251.181 270.866 C 251.181 270.606,237.533 270.472,211.024 270.472 C 184.514 270.472,170.866 270.606,170.866 270.866 M269.291 270.866 C 269.291 271.124,277.690 271.260,293.701 271.260 C 309.711 271.260,318.110 271.124,318.110 270.866 C 318.110 270.608,309.711 270.472,293.701 270.472 C 277.690 270.472,269.291 270.608,269.291 270.866 M399.213 307.480 C 399.213 309.318,399.377 310.630,399.606 310.630 C 399.836 310.630,400.000 309.318,400.000 307.480 C 400.000 305.643,399.836 304.331,399.606 304.331 C 399.377 304.331,399.213 305.643,399.213 307.480 " stroke="none" fill="#145c6f" fill-rule="evenodd"></path><path id="path4" d="M79.193 29.372 C 78.475 30.183,78.937 30.568,79.706 29.799 C 80.041 29.464,80.315 29.089,80.315 28.965 C 80.315 28.552,79.730 28.763,79.193 29.372 M323.622 63.386 C 323.622 83.596,323.757 94.094,324.016 94.094 C 324.275 94.094,324.409 83.596,324.409 63.386 C 324.409 43.176,324.275 32.677,324.016 32.677 C 323.757 32.677,323.622 43.176,323.622 63.386 M306.299 148.425 C 306.299 217.979,306.431 253.150,306.693 253.150 C 306.954 253.150,307.087 217.979,307.087 148.425 C 307.087 78.871,306.954 43.701,306.693 43.701 C 306.431 43.701,306.299 78.871,306.299 148.425 M323.622 188.583 C 323.622 239.239,323.755 264.961,324.016 264.961 C 324.277 264.961,324.409 239.239,324.409 188.583 C 324.409 137.927,324.277 112.205,324.016 112.205 C 323.755 112.205,323.622 137.927,323.622 188.583 M76.378 156.693 C 76.378 161.942,76.522 164.961,76.772 164.961 C 77.022 164.961,77.165 161.942,77.165 156.693 C 77.165 151.444,77.022 148.425,76.772 148.425 C 76.522 148.425,76.378 151.444,76.378 156.693 M321.321 267.576 C 320.380 268.551,319.703 269.441,319.817 269.554 C 320.022 269.759,323.622 266.354,323.622 265.955 C 323.622 265.433,322.898 265.943,321.321 267.576 M152.756 270.866 C 152.756 271.117,156.037 271.260,161.811 271.260 C 167.585 271.260,170.866 271.117,170.866 270.866 C 170.866 270.615,167.585 270.472,161.811 270.472 C 156.037 270.472,152.756 270.615,152.756 270.866 M251.181 270.866 C 251.181 271.117,254.462 271.260,260.236 271.260 C 266.010 271.260,269.291 271.117,269.291 270.866 C 269.291 270.615,266.010 270.472,260.236 270.472 C 254.462 270.472,251.181 270.615,251.181 270.866 " stroke="none" fill="#126485" fill-rule="evenodd"></path></g></svg>