<svg version="1.1" id="Layer_1" xmlns="http://www.w3.org/2000/svg" xmlns:xlink="http://www.w3.org/1999/xlink" x="0px" y="0px"
	 width="100%" viewBox="0 0 200 200" enable-background="new 0 0 200 200" xml:space="preserve">
<path fill="#121619" opacity="1.000000" stroke="none" 
	d="
M90.000000,201.000000 
	C60.018448,201.000000 30.536894,201.000000 1.027670,201.000000 
	C1.027670,134.393478 1.027670,67.786942 1.027670,1.090201 
	C67.564735,1.090201 134.129639,1.090201 200.847260,1.090201 
	C200.847260,67.666397 200.847260,134.333160 200.847260,201.000000 
	C164.120560,201.000000 127.310280,201.000000 90.000000,201.000000 
M100.817688,87.663826 
	C101.546471,81.075226 105.418549,77.166298 111.553864,75.352577 
	C117.411880,73.620842 121.277466,76.507408 124.781326,80.905525 
	C129.643143,87.008171 136.768509,88.000404 143.399963,83.819252 
	C148.317780,80.718552 150.951477,76.028015 152.299622,70.477737 
	C153.654022,64.901833 152.639114,62.512585 147.409454,60.168083 
	C139.615768,56.674118 131.346085,56.802200 123.383934,58.638096 
	C116.355789,60.258633 109.677155,63.394947 103.024361,65.796928 
	C103.125832,57.920773 102.209137,56.997799 93.682762,56.996628 
	C90.684029,56.996216 87.681000,56.900166 84.687370,57.025406 
	C76.251350,57.378323 68.901924,63.484657 67.951935,71.442223 
	C64.894073,97.056343 62.000206,122.690384 59.144360,148.328018 
	C58.499851,154.113968 61.317719,156.938461 67.250061,157.002060 
	C82.276344,157.163193 94.449051,145.862305 95.976295,130.687912 
	C97.392899,116.612839 99.131165,102.570129 100.817688,87.663826 
z"/>
<path fill="#FCFCFC" opacity="1.000000" stroke="none" 
	d="
M100.772736,88.088501 
	C99.131165,102.570129 97.392899,116.612839 95.976295,130.687912 
	C94.449051,145.862305 82.276344,157.163193 67.250061,157.002060 
	C61.317719,156.938461 58.499851,154.113968 59.144360,148.328018 
	C62.000206,122.690384 64.894073,97.056343 67.951935,71.442223 
	C68.901924,63.484657 76.251350,57.378323 84.687370,57.025406 
	C87.681000,56.900166 90.684029,56.996216 93.682762,56.996628 
	C102.209137,56.997799 103.125832,57.920773 103.024361,65.796928 
	C109.677155,63.394947 116.355789,60.258633 123.383934,58.638096 
	C131.346085,56.802200 139.615768,56.674118 147.409454,60.168083 
	C152.639114,62.512585 153.654022,64.901833 152.299622,70.477737 
	C150.951477,76.028015 148.317780,80.718552 143.399963,83.819252 
	C136.768509,88.000404 129.643143,87.008171 124.781326,80.905525 
	C121.277466,76.507408 117.411880,73.620842 111.553864,75.352577 
	C105.418549,77.166298 101.546471,81.075226 100.772736,88.088501 
z"/>
</svg>